<?xml version="1.0" encoding="utf-8"?>
<!-- Generator: Adobe Illustrator 25.0.1, SVG Export Plug-In . SVG Version: 6.00 Build 0)  -->
<svg version="1.1" id="Layer_1" xmlns="http://www.w3.org/2000/svg" xmlns:xlink="http://www.w3.org/1999/xlink" x="0px" y="0px"
	 viewBox="0 0 340 80" style="enable-background:new 0 0 340 80;" xml:space="preserve">
<style type="text/css">
	.st0{fill:#00A3DD;}
	.st1{fill:#DD1E33;}
	.st2{fill:#EEAD27;}
	.st3{fill:#13497F;}
</style>
<g>
	<path class="st0" d="M64.78,52.2c-0.41,0.73-0.93,1.5-1.57,2.3c-3.89,4.81-10.93,8.76-20.92,11.77c-2.31,0.69-4.81,1.34-7.44,1.93
		v10.12c29.25-9.28,29.93-22.81,29.93-25.63V52.2L64.78,52.2z M62.91,45.97H34.85v9.66C52.53,54.5,59.94,50.1,62.91,45.97
		L62.91,45.97z M41.79,64.61c-2.16,0.65-4.5,1.26-6.94,1.81v-9.05c11.04-0.7,24.88-3.22,29.93-10.84
		C64.88,48.34,64.09,57.9,41.79,64.61L41.79,64.61z"/>
	<path class="st0" d="M25.84,66.77l-5.3-2.79l-5.3,2.79l1.02-5.93l-4.52-5.07l6.18,0l2.61-5.3l2.61,5.29h6.03l-1.5,1.74h-2.29l0,0
		h-3.33l-1.53-3.11l-1.53,3.1l-3.4,0l2.5,2.81l-0.57,3.3l2.99-1.57l2.99,1.57l-0.57-3.29l0.93-1.08h2.29l-1.37,1.59L25.84,66.77
		L25.84,66.77z M2.63,45.97v6.73c-0.05,2.87,0.69,16.35,29.93,25.63V45.97H2.63L2.63,45.97z"/>
	<path class="st1" d="M58.29,16.19h-16.9v1.74h16.9V16.19L58.29,16.19z M58.29,22.54h-16.9v1.74h16.9V22.54L58.29,22.54z
		 M58.29,35.24h-16.9v1.74h16.9V35.24L58.29,35.24z M58.29,28.89h-16.9v1.74h16.9V28.89L58.29,28.89z M64.8,1.63v42.06H34.85V8.42
		L64.8,1.63L64.8,1.63z"/>
	<path class="st2" d="M10.87,31.11l-1.72-1.03v-5.12l4.73,2.85l3.76-2.7l3.79,2.71l4.71-2.94v5.13l-1.72,1.07v-3.22l-3.05,1.9
		l-3.74-2.68l-3.68,2.64l-3.08-1.85V31.11L10.87,31.11z M10.87,24.06l-1.72-1.03V17.9l4.73,2.85l3.76-2.7l3.79,2.71l4.71-2.94v5.13
		l-1.72,1.07V20.8l-3.05,1.9l-3.74-2.68l-3.68,2.64l-3.08-1.85V24.06L10.87,24.06z M26.14,31.82v6.85h-1.53h-0.19V34.8l-3.05,1.9
		l-3.74-2.68l-3.68,2.64l-3.08-1.85v3.86h-0.19H9.15v-6.77l4.73,2.85l3.76-2.7l3.79,2.71L26.14,31.82L26.14,31.82z M2.63,15.73
		v27.96h29.93V8.94L2.63,15.73L2.63,15.73z M32.56,6.74l-21.55,4.89L32.56,1.6V6.74L32.56,6.74z"/>
	<path class="st3" d="M253.05,67.97h1.31l-2.59,8.21c-0.07,0.21-0.14,0.38-0.22,0.51c-0.08,0.14-0.18,0.25-0.3,0.33
		c-0.12,0.08-0.26,0.14-0.42,0.17c-0.16,0.03-0.35,0.05-0.57,0.05h-0.93v-1.09h1.21l0.31-1.12l-2.23-7.05h1.35l1,3.51l0.46,2.03
		h0.14l0.46-2.03L253.05,67.97L253.05,67.97z M246.72,74.66c-0.46,0-0.8-0.1-1.01-0.31c-0.21-0.21-0.31-0.54-0.31-1v-4.29h-0.93
		v-1.09h0.51c0.22,0,0.36-0.05,0.43-0.15c0.07-0.1,0.11-0.26,0.11-0.47v-1.21h1.2v1.83h1.25v1.09h-1.25v4.5h1.16v1.09H246.72
		L246.72,74.66z M241.94,67.97h1.32v6.69h-1.32V67.97L241.94,67.97z M242.6,66.7c-0.53,0-0.8-0.23-0.8-0.68v-0.23
		c0-0.45,0.27-0.68,0.8-0.68c0.53,0,0.8,0.23,0.8,0.68v0.23C243.4,66.47,243.13,66.7,242.6,66.7L242.6,66.7z M238.15,74.82
		c-0.56,0-1.04-0.1-1.45-0.31c-0.41-0.21-0.76-0.52-1.06-0.92l0.85-0.78c0.22,0.32,0.47,0.56,0.73,0.72
		c0.27,0.16,0.58,0.24,0.94,0.24c0.35,0,0.62-0.08,0.81-0.24c0.19-0.16,0.28-0.4,0.28-0.71c0-0.24-0.06-0.44-0.18-0.59
		c-0.12-0.15-0.34-0.25-0.66-0.31l-0.58-0.1c-0.68-0.12-1.18-0.33-1.49-0.63c-0.32-0.3-0.48-0.75-0.48-1.34c0-0.69,0.2-1.2,0.6-1.53
		c0.4-0.33,0.96-0.49,1.66-0.49c0.51,0,0.95,0.09,1.32,0.26c0.36,0.18,0.68,0.43,0.96,0.76l-0.8,0.78c-0.18-0.25-0.4-0.44-0.65-0.57
		c-0.25-0.13-0.53-0.19-0.82-0.19c-0.67,0-1,0.31-1,0.92c0,0.27,0.07,0.47,0.21,0.6c0.14,0.13,0.36,0.22,0.66,0.27l0.59,0.12
		c0.7,0.12,1.19,0.33,1.49,0.64c0.3,0.3,0.44,0.72,0.44,1.25c0,0.68-0.21,1.2-0.62,1.58C239.5,74.63,238.91,74.82,238.15,74.82
		L238.15,74.82z M231.73,74.66v-6.69h1.33v1.33h0.15c0.09-0.43,0.27-0.76,0.53-0.99c0.26-0.23,0.59-0.34,1-0.34h0.33v1.35h-0.57
		c-0.47,0-0.83,0.09-1.08,0.27c-0.25,0.18-0.37,0.47-0.37,0.86v4.21H231.73L231.73,74.66z M227.64,68.88
		c-0.45,0-0.79,0.14-1.03,0.41c-0.24,0.27-0.36,0.68-0.36,1.22v0.27h2.69V70.5C228.94,69.42,228.5,68.88,227.64,68.88L227.64,68.88z
		 M227.71,74.82c-0.42,0-0.81-0.07-1.16-0.21c-0.35-0.14-0.65-0.35-0.9-0.64c-0.25-0.29-0.44-0.65-0.59-1.09
		c-0.14-0.44-0.21-0.96-0.21-1.57c0-0.61,0.06-1.13,0.19-1.58c0.13-0.44,0.32-0.8,0.56-1.09c0.24-0.28,0.54-0.49,0.87-0.63
		c0.34-0.14,0.72-0.21,1.15-0.21c0.85,0,1.51,0.28,1.99,0.84c0.48,0.56,0.71,1.45,0.71,2.66v0.33h-4.09v0.42
		c0,0.53,0.14,0.94,0.41,1.22c0.27,0.28,0.64,0.42,1.11,0.42c0.4,0,0.74-0.09,1-0.27c0.26-0.18,0.48-0.43,0.66-0.76l0.77,0.73
		c-0.24,0.42-0.56,0.76-0.97,1.01C228.82,74.69,228.31,74.82,227.71,74.82L227.71,74.82z M220.64,74.66l-2.02-6.69h1.34l0.98,3.49
		l0.48,2.06h0.17l0.46-2.06l0.98-3.49h1.3l-2.02,6.69H220.64L220.64,74.66z M216.25,67.97h1.33v6.69h-1.33V67.97L216.25,67.97z
		 M216.91,66.7c-0.53,0-0.8-0.23-0.8-0.68v-0.23c0-0.45,0.27-0.68,0.8-0.68c0.53,0,0.8,0.23,0.8,0.68v0.23
		C217.7,66.47,217.44,66.7,216.91,66.7L216.91,66.7z M209.48,74.66v-6.69h1.33v1.11h0.15c0.27-0.84,0.81-1.26,1.65-1.26
		c0.6,0,1.07,0.2,1.4,0.61c0.33,0.41,0.5,1.01,0.5,1.79v4.44h-1.33v-4.26c0-0.47-0.09-0.83-0.27-1.08
		c-0.18-0.25-0.46-0.37-0.85-0.37c-0.35,0-0.65,0.11-0.89,0.32c-0.24,0.21-0.36,0.5-0.36,0.88v4.52H209.48L209.48,74.66z
		 M202.89,65.68v5.82c0,0.72,0.12,1.25,0.37,1.6c0.25,0.34,0.69,0.52,1.33,0.52c0.64,0,1.08-0.17,1.33-0.52
		c0.25-0.34,0.37-0.87,0.37-1.6v-5.82h1.36v5.6c0,0.61-0.05,1.14-0.16,1.58c-0.11,0.45-0.28,0.81-0.52,1.11
		c-0.24,0.29-0.56,0.51-0.95,0.64c-0.39,0.14-0.87,0.21-1.43,0.21c-0.57,0-1.04-0.07-1.43-0.21c-0.39-0.14-0.71-0.35-0.95-0.64
		c-0.24-0.29-0.41-0.66-0.52-1.11c-0.11-0.45-0.16-0.97-0.16-1.58v-5.6H202.89L202.89,65.68z M196.76,74.66c-0.46,0-0.8-0.1-1-0.31
		c-0.21-0.21-0.31-0.54-0.31-0.99v-8.22h1.33v8.43h0.8v1.09H196.76L196.76,74.66z M190.93,73.79c0.19,0,0.36-0.03,0.52-0.09
		c0.16-0.06,0.3-0.14,0.41-0.24c0.12-0.1,0.21-0.23,0.28-0.37c0.07-0.14,0.1-0.29,0.1-0.46v-0.93h-1.04c-0.83,0-1.25,0.3-1.25,0.9
		v0.31c0,0.3,0.09,0.52,0.26,0.66C190.39,73.72,190.63,73.79,190.93,73.79L190.93,73.79z M193.35,74.66c-0.33,0-0.58-0.09-0.76-0.27
		c-0.18-0.18-0.27-0.46-0.27-0.85h-0.15c-0.09,0.4-0.29,0.72-0.59,0.94c-0.3,0.22-0.66,0.33-1.09,0.33c-0.63,0-1.11-0.17-1.42-0.51
		c-0.31-0.34-0.47-0.82-0.47-1.43c0-0.67,0.21-1.18,0.64-1.53c0.43-0.35,1.06-0.53,1.89-0.53h1.11v-0.64c0-0.43-0.09-0.74-0.28-0.95
		c-0.19-0.2-0.49-0.3-0.9-0.3c-0.32,0-0.59,0.07-0.82,0.21c-0.23,0.14-0.44,0.37-0.62,0.69l-0.78-0.72
		c0.22-0.38,0.53-0.69,0.91-0.93c0.38-0.24,0.85-0.36,1.41-0.36c0.81,0,1.41,0.2,1.81,0.59c0.4,0.39,0.6,0.96,0.6,1.72v3.45h0.63
		v1.09H193.35L193.35,74.66z M185.43,74.82c-0.88,0-1.55-0.28-2.02-0.84c-0.47-0.56-0.71-1.44-0.71-2.66c0-1.22,0.24-2.11,0.71-2.66
		c0.47-0.56,1.14-0.84,2.02-0.84c0.64,0,1.16,0.15,1.54,0.44c0.39,0.3,0.66,0.69,0.84,1.18l-1.09,0.51
		c-0.08-0.33-0.22-0.59-0.42-0.77c-0.2-0.18-0.49-0.26-0.87-0.26c-0.88,0-1.33,0.54-1.33,1.61v1.57c0,1.07,0.44,1.61,1.33,1.61
		c0.39,0,0.69-0.09,0.91-0.28c0.22-0.18,0.39-0.46,0.51-0.82l1,0.55c-0.2,0.52-0.5,0.93-0.89,1.22
		C186.56,74.68,186.05,74.82,185.43,74.82L185.43,74.82z M180,67.97h1.33v6.69H180V67.97L180,67.97z M180.66,66.7
		c-0.53,0-0.8-0.23-0.8-0.68v-0.23c0-0.45,0.27-0.68,0.8-0.68c0.53,0,0.8,0.23,0.8,0.68v0.23C181.46,66.47,181.19,66.7,180.66,66.7
		L180.66,66.7z M175.96,71.44c0.76,0,1.15-0.38,1.15-1.13v-0.39c0-0.76-0.38-1.13-1.15-1.13c-0.76,0-1.15,0.38-1.15,1.13v0.39
		C174.82,71.06,175.2,71.44,175.96,71.44L175.96,71.44z M177.82,75.46c0-0.25-0.08-0.44-0.24-0.58c-0.16-0.14-0.44-0.21-0.82-0.21
		h-2.06c-0.26,0.18-0.39,0.45-0.39,0.8c0,0.3,0.1,0.53,0.29,0.7c0.19,0.17,0.52,0.25,0.98,0.25h0.8c0.51,0,0.87-0.08,1.1-0.24
		C177.7,76.03,177.82,75.79,177.82,75.46L177.82,75.46z M179.07,75.33c0,0.35-0.06,0.66-0.17,0.91c-0.11,0.26-0.29,0.47-0.54,0.64
		c-0.25,0.17-0.57,0.3-0.96,0.38c-0.39,0.09-0.87,0.13-1.43,0.13c-0.51,0-0.93-0.04-1.29-0.11c-0.35-0.07-0.64-0.18-0.86-0.31
		c-0.22-0.14-0.38-0.31-0.47-0.51c-0.09-0.2-0.14-0.43-0.14-0.69c0-0.34,0.09-0.61,0.28-0.81c0.18-0.2,0.44-0.33,0.77-0.38v-0.22
		c-0.24-0.09-0.42-0.21-0.53-0.39c-0.12-0.17-0.17-0.38-0.17-0.62c0-0.3,0.1-0.54,0.29-0.73c0.19-0.18,0.45-0.3,0.78-0.35v-0.15
		c-0.72-0.37-1.08-1.04-1.08-2.01c0-0.74,0.2-1.31,0.61-1.7c0.41-0.4,1.01-0.59,1.82-0.59c0.4,0,0.76,0.06,1.08,0.19V67.8
		c0-0.55,0.27-0.82,0.8-0.82h0.93v1.05h-1.23v0.3c0.27,0.17,0.49,0.41,0.64,0.72c0.15,0.31,0.23,0.66,0.23,1.08
		c0,0.74-0.2,1.31-0.61,1.7c-0.41,0.39-1.01,0.59-1.82,0.59c-0.15,0-0.3-0.01-0.44-0.03c-0.14-0.02-0.28-0.04-0.41-0.06
		c-0.17,0.05-0.3,0.14-0.39,0.26c-0.09,0.12-0.13,0.26-0.13,0.41c0,0.17,0.06,0.3,0.17,0.38c0.12,0.09,0.31,0.13,0.57,0.13h1.61
		c0.76,0,1.31,0.16,1.63,0.47C178.9,74.29,179.07,74.74,179.07,75.33L179.07,75.33z M169.58,73.71c0.45,0,0.79-0.13,1.02-0.4
		c0.24-0.27,0.35-0.67,0.35-1.21v-1.57c0-0.54-0.12-0.94-0.35-1.21c-0.24-0.27-0.58-0.4-1.02-0.4c-0.45,0-0.79,0.13-1.02,0.4
		c-0.24,0.27-0.35,0.67-0.35,1.21v1.57c0,0.54,0.12,0.94,0.35,1.21C168.8,73.58,169.14,73.71,169.58,73.71L169.58,73.71z
		 M169.58,74.82c-0.43,0-0.81-0.07-1.15-0.21c-0.34-0.14-0.63-0.35-0.87-0.63c-0.25-0.28-0.43-0.64-0.56-1.09
		c-0.13-0.44-0.19-0.97-0.19-1.58c0-0.61,0.06-1.13,0.19-1.58c0.13-0.44,0.32-0.8,0.56-1.09c0.24-0.28,0.54-0.49,0.87-0.63
		c0.34-0.14,0.72-0.21,1.15-0.21c0.42,0,0.8,0.07,1.15,0.21c0.34,0.14,0.64,0.35,0.88,0.63c0.25,0.28,0.43,0.65,0.56,1.09
		c0.13,0.44,0.19,0.97,0.19,1.58c0,0.61-0.06,1.13-0.19,1.58c-0.13,0.44-0.31,0.8-0.56,1.09c-0.24,0.28-0.54,0.49-0.88,0.63
		C170.38,74.75,170,74.82,169.58,74.82L169.58,74.82z M165.2,74.66c-0.46,0-0.8-0.1-1-0.31c-0.21-0.21-0.31-0.54-0.31-0.99v-8.22
		h1.33v8.43h0.8v1.09H165.2L165.2,74.66z M159.73,73.71c0.45,0,0.79-0.13,1.02-0.4c0.24-0.27,0.35-0.67,0.35-1.21v-1.57
		c0-0.54-0.12-0.94-0.35-1.21c-0.24-0.27-0.58-0.4-1.02-0.4c-0.45,0-0.79,0.13-1.02,0.4c-0.24,0.27-0.35,0.67-0.35,1.21v1.57
		c0,0.54,0.12,0.94,0.35,1.21C158.94,73.58,159.28,73.71,159.73,73.71L159.73,73.71z M159.73,74.82c-0.43,0-0.81-0.07-1.15-0.21
		c-0.34-0.14-0.63-0.35-0.87-0.63c-0.24-0.28-0.43-0.64-0.56-1.09c-0.13-0.44-0.19-0.97-0.19-1.58c0-0.61,0.06-1.13,0.19-1.58
		c0.13-0.44,0.32-0.8,0.56-1.09c0.24-0.28,0.54-0.49,0.87-0.63c0.34-0.14,0.72-0.21,1.15-0.21c0.42,0,0.8,0.07,1.15,0.21
		c0.34,0.14,0.64,0.35,0.88,0.63c0.24,0.28,0.43,0.65,0.56,1.09c0.13,0.44,0.19,0.97,0.19,1.58c0,0.61-0.06,1.13-0.19,1.58
		c-0.13,0.44-0.31,0.8-0.56,1.09c-0.25,0.28-0.54,0.49-0.88,0.63C160.53,74.75,160.15,74.82,159.73,74.82L159.73,74.82z
		 M150.62,74.66v-6.69h1.32v1.11h0.15c0.27-0.84,0.81-1.26,1.65-1.26c0.6,0,1.07,0.2,1.4,0.61c0.33,0.41,0.5,1.01,0.5,1.79v4.44
		h-1.33v-4.26c0-0.47-0.09-0.83-0.27-1.08c-0.18-0.25-0.46-0.37-0.85-0.37c-0.35,0-0.65,0.11-0.89,0.32
		c-0.24,0.21-0.36,0.5-0.36,0.88v4.52H150.62L150.62,74.66z M143.86,65.14h1.33v3.94h0.15c0.27-0.84,0.81-1.26,1.65-1.26
		c0.6,0,1.07,0.2,1.4,0.61c0.33,0.41,0.5,1.01,0.5,1.79v4.44h-1.33v-4.26c0-0.47-0.09-0.83-0.27-1.08
		c-0.18-0.25-0.46-0.37-0.85-0.37c-0.35,0-0.65,0.11-0.89,0.32c-0.24,0.21-0.36,0.5-0.36,0.88v4.52h-1.33V65.14L143.86,65.14z
		 M140.25,74.82c-0.87,0-1.55-0.28-2.02-0.84c-0.47-0.56-0.71-1.44-0.71-2.66c0-1.22,0.24-2.11,0.71-2.66
		c0.47-0.56,1.15-0.84,2.02-0.84c0.64,0,1.16,0.15,1.54,0.44c0.39,0.3,0.66,0.69,0.84,1.18l-1.09,0.51
		c-0.08-0.33-0.22-0.59-0.42-0.77c-0.2-0.18-0.49-0.26-0.87-0.26c-0.88,0-1.32,0.54-1.32,1.61v1.57c0,1.07,0.44,1.61,1.32,1.61
		c0.39,0,0.69-0.09,0.91-0.28c0.22-0.18,0.39-0.46,0.51-0.82l1,0.55c-0.2,0.52-0.5,0.93-0.89,1.22
		C141.37,74.68,140.86,74.82,140.25,74.82L140.25,74.82z M133.97,68.88c-0.45,0-0.79,0.14-1.03,0.41c-0.24,0.27-0.36,0.68-0.36,1.22
		v0.27h2.69V70.5C135.27,69.42,134.83,68.88,133.97,68.88L133.97,68.88z M134.04,74.82c-0.42,0-0.81-0.07-1.16-0.21
		c-0.35-0.14-0.65-0.35-0.9-0.64c-0.25-0.29-0.44-0.65-0.59-1.09c-0.14-0.44-0.21-0.96-0.21-1.57c0-0.61,0.06-1.13,0.19-1.58
		c0.13-0.44,0.32-0.8,0.56-1.09c0.24-0.28,0.54-0.49,0.87-0.63c0.34-0.14,0.72-0.21,1.15-0.21c0.85,0,1.51,0.28,1.99,0.84
		c0.48,0.56,0.71,1.45,0.71,2.66v0.33h-4.09v0.42c0,0.53,0.14,0.94,0.4,1.22c0.27,0.28,0.64,0.42,1.11,0.42c0.4,0,0.74-0.09,1-0.27
		c0.26-0.18,0.48-0.43,0.66-0.76l0.77,0.73c-0.24,0.42-0.56,0.76-0.97,1.01C135.15,74.69,134.64,74.82,134.04,74.82L134.04,74.82z
		 M129.15,66.89v7.77h-1.36v-7.77h-2.38v-1.21h6.12v1.21H129.15L129.15,66.89z M119.66,74.66v-6.69h1.33v1.33h0.15
		c0.09-0.43,0.27-0.76,0.53-0.99c0.26-0.23,0.59-0.34,1-0.34h0.34v1.35h-0.57c-0.47,0-0.83,0.09-1.08,0.27
		c-0.25,0.18-0.37,0.47-0.37,0.86v4.21H119.66L119.66,74.66z M115.57,68.88c-0.45,0-0.79,0.14-1.03,0.41
		c-0.24,0.27-0.36,0.68-0.36,1.22v0.27h2.69V70.5C116.87,69.42,116.44,68.88,115.57,68.88L115.57,68.88z M115.65,74.82
		c-0.42,0-0.81-0.07-1.16-0.21c-0.35-0.14-0.65-0.35-0.9-0.64c-0.25-0.29-0.44-0.65-0.59-1.09c-0.14-0.44-0.21-0.96-0.21-1.57
		c0-0.61,0.06-1.13,0.19-1.58c0.13-0.44,0.32-0.8,0.56-1.09c0.24-0.28,0.54-0.49,0.88-0.63c0.34-0.14,0.72-0.21,1.15-0.21
		c0.85,0,1.51,0.28,1.99,0.84c0.48,0.56,0.71,1.45,0.71,2.66v0.33h-4.09v0.42c0,0.53,0.14,0.94,0.4,1.22
		c0.27,0.28,0.64,0.42,1.11,0.42c0.4,0,0.74-0.09,1-0.27c0.26-0.18,0.48-0.43,0.66-0.76l0.77,0.73c-0.24,0.42-0.56,0.76-0.97,1.01
		C116.75,74.69,116.25,74.82,115.65,74.82L115.65,74.82z M110.71,74.66c-0.46,0-0.8-0.1-1.01-0.31c-0.21-0.21-0.32-0.54-0.32-1
		v-4.29h-0.93v-1.09h0.51c0.21,0,0.36-0.05,0.43-0.15c0.07-0.1,0.11-0.26,0.11-0.47v-1.21h1.2v1.83h1.25v1.09h-1.25v4.5h1.16v1.09
		H110.71L110.71,74.66z M105.29,74.82c-0.56,0-1.04-0.1-1.45-0.31c-0.41-0.21-0.76-0.52-1.06-0.92l0.85-0.78
		c0.22,0.32,0.47,0.56,0.73,0.72c0.27,0.16,0.58,0.24,0.94,0.24c0.35,0,0.62-0.08,0.81-0.24c0.19-0.16,0.28-0.4,0.28-0.71
		c0-0.24-0.06-0.44-0.18-0.59c-0.12-0.15-0.34-0.25-0.66-0.31l-0.58-0.1c-0.68-0.12-1.18-0.33-1.49-0.63
		c-0.32-0.3-0.48-0.75-0.48-1.34c0-0.69,0.2-1.2,0.6-1.53c0.4-0.33,0.96-0.49,1.66-0.49c0.52,0,0.95,0.09,1.32,0.26
		c0.36,0.18,0.68,0.43,0.96,0.76l-0.8,0.78c-0.18-0.25-0.4-0.44-0.65-0.57c-0.25-0.13-0.53-0.19-0.82-0.19c-0.67,0-1,0.31-1,0.92
		c0,0.27,0.07,0.47,0.21,0.6c0.14,0.13,0.36,0.22,0.66,0.27l0.59,0.12c0.69,0.12,1.19,0.33,1.49,0.64c0.3,0.3,0.44,0.72,0.44,1.25
		c0,0.68-0.21,1.2-0.62,1.58C106.64,74.63,106.05,74.82,105.29,74.82L105.29,74.82z M96.58,74.66v-6.69h1.33v1.11h0.15
		c0.27-0.84,0.81-1.26,1.65-1.26c0.6,0,1.07,0.2,1.4,0.61c0.33,0.41,0.5,1.01,0.5,1.79v4.44h-1.33v-4.26c0-0.47-0.09-0.83-0.27-1.08
		c-0.18-0.25-0.46-0.37-0.85-0.37c-0.35,0-0.65,0.11-0.89,0.32c-0.24,0.21-0.36,0.5-0.36,0.88v4.52H96.58L96.58,74.66z M93.45,73.56
		h-0.17c-0.27,0.84-0.82,1.26-1.66,1.26c-0.59,0-1.05-0.2-1.38-0.61c-0.33-0.41-0.5-1.01-0.5-1.79v-4.44h1.33v4.26
		c0,0.97,0.38,1.45,1.13,1.45c0.34,0,0.64-0.11,0.88-0.31c0.24-0.21,0.37-0.5,0.37-0.88v-4.52h1.33v6.69h-1.33V73.56L93.45,73.56z
		 M86.62,69.13l0.09-1.53h-0.15l-0.62,1.51l-1.75,3.65l-1.74-3.65l-0.62-1.48h-0.15l0.09,1.51v5.53h-1.31v-8.98h1.61l1.45,3.14
		l0.63,1.78h0.12l0.63-1.78l1.44-3.14h1.59v8.98h-1.31V69.13L86.62,69.13z M266.75,60.27v-6.76h1.8v1.15h0.21
		c0.05-0.18,0.12-0.35,0.21-0.5s0.19-0.29,0.32-0.41c0.13-0.12,0.28-0.21,0.45-0.28c0.17-0.07,0.37-0.1,0.59-0.1
		c0.61,0,1.07,0.2,1.4,0.61c0.32,0.41,0.48,0.98,0.48,1.71v4.59h-1.8v-4.25c0-0.8-0.28-1.2-0.84-1.2c-0.27,0-0.51,0.08-0.71,0.25
		c-0.2,0.17-0.3,0.4-0.3,0.7v4.49H266.75L266.75,60.27z M262.32,59.16c0.27,0,0.5-0.07,0.69-0.22c0.19-0.15,0.29-0.38,0.29-0.7V57.4
		h-0.81c-0.62,0-0.93,0.26-0.93,0.77v0.24c0,0.26,0.07,0.45,0.2,0.57C261.89,59.1,262.08,59.16,262.32,59.16L262.32,59.16z
		 M264.61,60.27c-0.7,0-1.09-0.39-1.15-1.17h-0.17c-0.07,0.41-0.25,0.73-0.55,0.97c-0.3,0.24-0.68,0.35-1.15,0.35
		c-0.61,0-1.07-0.17-1.38-0.52c-0.31-0.35-0.46-0.83-0.46-1.45c0-0.74,0.23-1.27,0.68-1.61c0.45-0.33,1.08-0.5,1.88-0.5h0.98v-0.52
		c0-0.35-0.07-0.61-0.22-0.78c-0.15-0.17-0.39-0.25-0.73-0.25c-0.3,0-0.55,0.07-0.75,0.22c-0.2,0.15-0.38,0.35-0.53,0.59l-1.07-0.95
		c0.27-0.4,0.61-0.72,1-0.95c0.39-0.23,0.9-0.34,1.52-0.34c0.88,0,1.53,0.21,1.96,0.62c0.42,0.41,0.63,1.03,0.63,1.84v3.05h0.55v1.4
		H264.61L264.61,60.27z M253.26,50.75h1.8v3.91h0.21c0.05-0.18,0.12-0.35,0.21-0.5c0.09-0.15,0.2-0.29,0.33-0.41
		c0.13-0.12,0.28-0.21,0.45-0.28c0.17-0.07,0.37-0.1,0.61-0.1c0.6,0,1.06,0.2,1.38,0.61c0.32,0.41,0.48,0.98,0.48,1.71v4.59h-1.8
		v-4.25c0-0.8-0.28-1.2-0.84-1.2c-0.28,0-0.51,0.08-0.71,0.25c-0.2,0.17-0.3,0.4-0.3,0.7v4.49h-1.8V50.75L253.26,50.75z
		 M242.92,60.27v-6.76h1.8v1.15h0.21c0.05-0.18,0.12-0.35,0.21-0.5c0.09-0.15,0.2-0.29,0.32-0.41c0.12-0.12,0.27-0.21,0.44-0.28
		c0.17-0.07,0.37-0.1,0.59-0.1c0.44,0,0.78,0.12,1.04,0.35c0.26,0.24,0.45,0.57,0.57,1.01h0.17c0.15-0.47,0.38-0.82,0.69-1.04
		c0.31-0.22,0.68-0.33,1.09-0.33c0.57,0,1.01,0.21,1.32,0.62c0.3,0.41,0.46,0.98,0.46,1.7v4.59h-1.8v-4.25c0-0.8-0.26-1.2-0.78-1.2
		c-0.27,0-0.49,0.08-0.68,0.25c-0.19,0.17-0.28,0.4-0.28,0.7v4.49h-1.8v-4.25c0-0.8-0.26-1.2-0.79-1.2c-0.27,0-0.49,0.08-0.68,0.25
		c-0.19,0.17-0.28,0.4-0.28,0.7v4.49H242.92L242.92,60.27z M239.6,59.12h-0.21c-0.05,0.18-0.12,0.35-0.21,0.5
		c-0.09,0.15-0.2,0.29-0.33,0.41c-0.13,0.12-0.28,0.21-0.45,0.28c-0.17,0.07-0.37,0.1-0.6,0.1c-0.6,0-1.06-0.2-1.38-0.61
		c-0.32-0.41-0.48-0.98-0.48-1.7v-4.59h1.8v4.25c0,0.8,0.28,1.2,0.84,1.2c0.27,0,0.51-0.08,0.71-0.25c0.2-0.17,0.3-0.4,0.3-0.7
		v-4.49h1.8v6.76h-1.8V59.12L239.6,59.12z M232.68,55.58l0.1-1.51h-0.21l-0.55,1.43l-1.49,3.26l-1.48-3.26l-0.55-1.43h-0.21
		l0.1,1.51v4.68h-1.72v-8.98h1.93l1.22,2.68l0.67,1.92h0.13l0.67-1.92l1.2-2.68h1.92v8.98h-1.72V55.58L232.68,55.58z M219.48,59.16
		c0.27,0,0.5-0.07,0.69-0.22c0.19-0.15,0.29-0.38,0.29-0.7V57.4h-0.81c-0.62,0-0.93,0.26-0.93,0.77v0.24c0,0.26,0.07,0.45,0.2,0.57
		C219.05,59.1,219.24,59.16,219.48,59.16L219.48,59.16z M221.77,60.27c-0.7,0-1.09-0.39-1.15-1.17h-0.17
		c-0.07,0.41-0.25,0.73-0.55,0.97c-0.3,0.24-0.68,0.35-1.14,0.35c-0.61,0-1.07-0.17-1.38-0.52c-0.31-0.35-0.46-0.83-0.46-1.45
		c0-0.74,0.22-1.27,0.67-1.61c0.45-0.33,1.08-0.5,1.89-0.5h0.98v-0.52c0-0.35-0.07-0.61-0.22-0.78c-0.15-0.17-0.39-0.25-0.73-0.25
		c-0.3,0-0.55,0.07-0.75,0.22c-0.2,0.15-0.38,0.35-0.53,0.59l-1.07-0.95c0.27-0.4,0.61-0.72,1-0.95c0.39-0.23,0.9-0.34,1.52-0.34
		c0.88,0,1.54,0.21,1.95,0.62c0.42,0.41,0.63,1.03,0.63,1.84v3.05h0.55v1.4H221.77L221.77,60.27z M210.42,60.27v-6.76h1.8v1.15h0.21
		c0.05-0.18,0.12-0.35,0.21-0.5c0.09-0.15,0.19-0.29,0.32-0.41c0.13-0.12,0.28-0.21,0.45-0.28c0.17-0.07,0.37-0.1,0.59-0.1
		c0.61,0,1.07,0.2,1.4,0.61c0.32,0.41,0.48,0.98,0.48,1.71v4.59h-1.8v-4.25c0-0.8-0.28-1.2-0.84-1.2c-0.28,0-0.51,0.08-0.71,0.25
		c-0.2,0.17-0.3,0.4-0.3,0.7v4.49H210.42L210.42,60.27z M203.32,59.16c0.27,0,0.5-0.07,0.69-0.22c0.19-0.15,0.29-0.38,0.29-0.7V57.4
		h-0.81c-0.62,0-0.93,0.26-0.93,0.77v0.24c0,0.26,0.07,0.45,0.2,0.57C202.89,59.1,203.08,59.16,203.32,59.16L203.32,59.16z
		 M205.61,60.27c-0.7,0-1.08-0.39-1.15-1.17h-0.17c-0.07,0.41-0.25,0.73-0.55,0.97c-0.3,0.24-0.68,0.35-1.15,0.35
		c-0.61,0-1.07-0.17-1.38-0.52c-0.31-0.35-0.46-0.83-0.46-1.45c0-0.74,0.23-1.27,0.68-1.61c0.45-0.33,1.08-0.5,1.89-0.5h0.98v-0.52
		c0-0.35-0.07-0.61-0.22-0.78c-0.15-0.17-0.39-0.25-0.73-0.25c-0.3,0-0.55,0.07-0.75,0.22c-0.2,0.15-0.38,0.35-0.53,0.59l-1.07-0.95
		c0.27-0.4,0.61-0.72,1-0.95c0.39-0.23,0.9-0.34,1.52-0.34c0.88,0,1.54,0.21,1.96,0.62c0.42,0.41,0.63,1.03,0.63,1.84v3.05h0.55v1.4
		H205.61L205.61,60.27z M198.89,60.27c-0.62,0-1.07-0.14-1.35-0.41c-0.28-0.27-0.42-0.71-0.42-1.31v-3.63h-0.85v-1.4h0.41
		c0.24,0,0.4-0.05,0.49-0.15c0.09-0.1,0.13-0.27,0.13-0.5v-1.17h1.62v1.83h1.18v1.4h-1.18v3.95h1.05v1.4H198.89L198.89,60.27z
		 M189.91,50.75h1.8v3.91h0.21c0.05-0.18,0.12-0.35,0.21-0.5c0.09-0.15,0.2-0.29,0.33-0.41c0.13-0.12,0.28-0.21,0.45-0.28
		c0.17-0.07,0.37-0.1,0.6-0.1c0.6,0,1.06,0.2,1.38,0.61c0.32,0.41,0.48,0.98,0.48,1.71v4.59h-1.8v-4.25c0-0.8-0.28-1.2-0.84-1.2
		c-0.27,0-0.51,0.08-0.71,0.25c-0.2,0.17-0.3,0.4-0.3,0.7v4.49h-1.8V50.75L189.91,50.75z M186.41,60.42c-0.94,0-1.66-0.29-2.14-0.86
		c-0.48-0.57-0.72-1.46-0.72-2.66c0-1.2,0.24-2.09,0.72-2.67c0.48-0.58,1.19-0.87,2.14-0.87c0.67,0,1.2,0.15,1.6,0.46
		c0.4,0.3,0.68,0.74,0.85,1.29l-1.45,0.64c-0.04-0.33-0.14-0.57-0.3-0.73c-0.15-0.16-0.39-0.24-0.71-0.24
		c-0.65,0-0.98,0.38-0.98,1.16v1.89c0,0.77,0.33,1.16,0.98,1.16c0.33,0,0.57-0.08,0.73-0.25c0.16-0.17,0.28-0.42,0.35-0.77l1.4,0.62
		C188.52,59.81,187.7,60.42,186.41,60.42L186.41,60.42z M179.94,58.99c0.66,0,0.99-0.39,0.99-1.16v-1.89c0-0.77-0.33-1.16-0.99-1.16
		c-0.66,0-0.99,0.38-0.99,1.16v1.89C178.95,58.61,179.28,58.99,179.94,58.99L179.94,58.99z M179.94,60.42
		c-0.94,0-1.66-0.29-2.14-0.86c-0.48-0.57-0.73-1.46-0.73-2.66c0-1.2,0.24-2.09,0.73-2.67c0.48-0.58,1.2-0.87,2.14-0.87
		c0.94,0,1.66,0.29,2.14,0.87c0.48,0.58,0.73,1.47,0.73,2.67c0,1.2-0.24,2.09-0.73,2.66C181.6,60.13,180.88,60.42,179.94,60.42
		L179.94,60.42z M175.24,52.82l-1.06-0.5l1.18-2.55l1.53,0.75L175.24,52.82L175.24,52.82z M174.13,60.27v-6.76h1.8v6.76H174.13
		L174.13,60.27z M169.71,59.16c0.27,0,0.5-0.07,0.69-0.22c0.19-0.15,0.29-0.38,0.29-0.7V57.4h-0.81c-0.62,0-0.93,0.26-0.93,0.77
		v0.24c0,0.26,0.07,0.45,0.2,0.57C169.28,59.1,169.47,59.16,169.71,59.16L169.71,59.16z M172,60.27c-0.7,0-1.09-0.39-1.15-1.17
		h-0.17c-0.07,0.41-0.25,0.73-0.55,0.97c-0.3,0.24-0.68,0.35-1.15,0.35c-0.61,0-1.07-0.17-1.38-0.52c-0.31-0.35-0.46-0.83-0.46-1.45
		c0-0.74,0.22-1.27,0.68-1.61c0.45-0.33,1.08-0.5,1.89-0.5h0.98v-0.52c0-0.35-0.07-0.61-0.22-0.78c-0.15-0.17-0.39-0.25-0.73-0.25
		c-0.3,0-0.55,0.07-0.75,0.22c-0.2,0.15-0.38,0.35-0.53,0.59l-1.07-0.95c0.27-0.4,0.61-0.72,1-0.95c0.39-0.23,0.9-0.34,1.52-0.34
		c0.88,0,1.54,0.21,1.96,0.62c0.42,0.41,0.63,1.03,0.63,1.84v3.05h0.55v1.4H172L172,60.27z M165.78,60.27
		c-0.63,0-1.07-0.14-1.34-0.42c-0.27-0.28-0.41-0.71-0.41-1.28v-7.82h1.8v8.12h0.76v1.4H165.78L165.78,60.27z M160.03,58.99
		c0.66,0,0.99-0.39,0.99-1.16v-1.89c0-0.77-0.33-1.16-0.99-1.16c-0.66,0-0.99,0.38-0.99,1.16v1.89
		C159.04,58.61,159.37,58.99,160.03,58.99L160.03,58.99z M160.03,60.42c-0.94,0-1.66-0.29-2.14-0.86c-0.48-0.57-0.73-1.46-0.73-2.66
		c0-1.2,0.24-2.09,0.73-2.67c0.48-0.58,1.2-0.87,2.14-0.87c0.94,0,1.66,0.29,2.14,0.87c0.48,0.58,0.73,1.47,0.73,2.67
		c0,1.2-0.24,2.09-0.73,2.66C161.69,60.13,160.98,60.42,160.03,60.42L160.03,60.42z M153.55,54.71c-0.66,0-0.99,0.38-0.99,1.15v0.41
		h1.98v-0.41C154.54,55.09,154.21,54.71,153.55,54.71L153.55,54.71z M153.73,60.42c-0.93,0-1.67-0.29-2.22-0.88
		c-0.55-0.59-0.83-1.47-0.83-2.64c0-1.2,0.24-2.09,0.73-2.67c0.48-0.58,1.2-0.87,2.14-0.87c0.94,0,1.66,0.29,2.14,0.87
		c0.48,0.58,0.73,1.46,0.73,2.66v0.44h-3.86v0.43c0,0.38,0.12,0.68,0.35,0.91c0.23,0.23,0.55,0.34,0.95,0.34
		c0.33,0,0.62-0.08,0.86-0.23c0.24-0.15,0.45-0.36,0.65-0.62l0.91,1.07c-0.28,0.37-0.62,0.66-1.05,0.88
		C154.8,60.31,154.3,60.42,153.73,60.42L153.73,60.42z M144.17,60.27v-6.76h1.8v1.15h0.21c0.05-0.18,0.12-0.35,0.2-0.5
		c0.09-0.15,0.19-0.29,0.32-0.41c0.13-0.12,0.28-0.21,0.45-0.28c0.17-0.07,0.37-0.1,0.59-0.1c0.61,0,1.07,0.2,1.4,0.61
		c0.32,0.41,0.48,0.98,0.48,1.71v4.59h-1.8v-4.25c0-0.8-0.28-1.2-0.84-1.2c-0.28,0-0.51,0.08-0.71,0.25c-0.2,0.17-0.3,0.4-0.3,0.7
		v4.49H144.17L144.17,60.27z M140.67,60.42c-0.94,0-1.66-0.29-2.14-0.86c-0.48-0.57-0.72-1.46-0.72-2.66c0-1.2,0.24-2.09,0.72-2.67
		c0.48-0.58,1.19-0.87,2.14-0.87c0.67,0,1.2,0.15,1.6,0.46c0.4,0.3,0.68,0.74,0.86,1.29l-1.45,0.64c-0.04-0.33-0.14-0.57-0.3-0.73
		c-0.15-0.16-0.39-0.24-0.71-0.24c-0.65,0-0.98,0.38-0.98,1.16v1.89c0,0.77,0.33,1.16,0.98,1.16c0.33,0,0.57-0.08,0.73-0.25
		c0.16-0.17,0.28-0.42,0.35-0.77l1.4,0.62C142.78,59.81,141.96,60.42,140.67,60.42L140.67,60.42z M134.88,53.51h1.8v6.76h-1.8V53.51
		L134.88,53.51z M135.78,52.69c-0.37,0-0.64-0.08-0.8-0.24c-0.17-0.16-0.25-0.37-0.25-0.65v-0.28c0-0.28,0.08-0.49,0.25-0.65
		c0.17-0.16,0.44-0.24,0.8-0.24c0.37,0,0.64,0.08,0.8,0.24c0.17,0.16,0.25,0.37,0.25,0.65v0.28c0,0.28-0.08,0.49-0.25,0.65
		C136.42,52.61,136.15,52.69,135.78,52.69L135.78,52.69z M131.1,54.71c-0.66,0-0.99,0.38-0.99,1.15v0.41h1.98v-0.41
		C132.1,55.09,131.77,54.71,131.1,54.71L131.1,54.71z M131.28,60.42c-0.93,0-1.67-0.29-2.22-0.88c-0.55-0.59-0.83-1.47-0.83-2.64
		c0-1.2,0.24-2.09,0.73-2.67c0.48-0.58,1.2-0.87,2.14-0.87c0.94,0,1.66,0.29,2.14,0.87c0.48,0.58,0.73,1.46,0.73,2.66v0.44h-3.86
		v0.43c0,0.38,0.12,0.68,0.35,0.91c0.23,0.23,0.55,0.34,0.95,0.34c0.33,0,0.62-0.08,0.86-0.23c0.24-0.15,0.45-0.36,0.65-0.62
		l0.91,1.07c-0.27,0.37-0.62,0.66-1.05,0.88C132.36,60.31,131.86,60.42,131.28,60.42L131.28,60.42z M126.43,52.89v7.37h-1.84v-7.37
		h-2.15v-1.61h6.14v1.61H126.43L126.43,52.89z M118.46,60.27c-0.63,0-1.07-0.14-1.35-0.42c-0.27-0.28-0.4-0.71-0.4-1.28v-7.82h1.8
		v8.12h0.76v1.4H118.46L118.46,60.27z M113.39,53.51h1.8v6.76h-1.8V53.51L113.39,53.51z M114.29,52.69c-0.37,0-0.64-0.08-0.8-0.24
		c-0.17-0.16-0.25-0.37-0.25-0.65v-0.28c0-0.28,0.08-0.49,0.25-0.65c0.17-0.16,0.44-0.24,0.8-0.24c0.37,0,0.64,0.08,0.8,0.24
		c0.17,0.16,0.25,0.37,0.25,0.65v0.28c0,0.28-0.08,0.49-0.25,0.65C114.93,52.61,114.66,52.69,114.29,52.69L114.29,52.69z
		 M109.39,58.99c0.66,0,0.99-0.39,0.99-1.16v-1.89c0-0.77-0.33-1.16-0.99-1.16c-0.66,0-0.99,0.38-0.99,1.16v1.89
		C108.4,58.61,108.73,58.99,109.39,58.99L109.39,58.99z M109.39,60.42c-0.94,0-1.66-0.29-2.14-0.86c-0.48-0.57-0.73-1.46-0.73-2.66
		c0-1.2,0.24-2.09,0.73-2.67c0.48-0.58,1.2-0.87,2.14-0.87c0.94,0,1.66,0.29,2.14,0.87c0.48,0.58,0.73,1.47,0.73,2.67
		c0,1.2-0.24,2.09-0.73,2.66C111.05,60.13,110.33,60.42,109.39,60.42L109.39,60.42z M103.45,60.42c-0.94,0-1.66-0.29-2.14-0.86
		c-0.48-0.57-0.72-1.46-0.72-2.66c0-1.2,0.24-2.09,0.72-2.67c0.48-0.58,1.19-0.87,2.14-0.87c0.67,0,1.2,0.15,1.6,0.46
		c0.4,0.3,0.68,0.74,0.86,1.29l-1.45,0.64c-0.04-0.33-0.14-0.57-0.3-0.73c-0.15-0.16-0.39-0.24-0.71-0.24
		c-0.65,0-0.98,0.38-0.98,1.16v1.89c0,0.77,0.33,1.16,0.98,1.16c0.33,0,0.57-0.08,0.73-0.25c0.16-0.17,0.28-0.42,0.35-0.77l1.4,0.62
		C105.56,59.81,104.73,60.42,103.45,60.42L103.45,60.42z M97.3,60.42c-1.11,0-1.99-0.4-2.65-1.2l1.07-1.07
		c0.41,0.58,0.95,0.87,1.62,0.87c0.57,0,0.86-0.23,0.86-0.7c0-0.18-0.05-0.32-0.14-0.42c-0.09-0.1-0.24-0.17-0.44-0.21l-0.68-0.13
		c-0.73-0.14-1.25-0.37-1.58-0.69c-0.32-0.32-0.48-0.78-0.48-1.37c0-0.71,0.21-1.25,0.63-1.62c0.42-0.36,1.03-0.55,1.84-0.55
		c0.54,0,1.01,0.08,1.41,0.25c0.4,0.17,0.75,0.42,1.05,0.77l-1.03,1.05c-0.39-0.45-0.86-0.68-1.41-0.68c-0.52,0-0.79,0.23-0.79,0.7
		c0,0.19,0.05,0.33,0.14,0.42c0.09,0.09,0.25,0.16,0.46,0.21l0.71,0.13c0.71,0.13,1.22,0.34,1.54,0.65
		c0.31,0.31,0.47,0.74,0.47,1.31c0,0.73-0.23,1.29-0.68,1.68C98.76,60.23,98.12,60.42,97.3,60.42L97.3,60.42z M93.35,60.27
		c-0.63,0-1.07-0.14-1.34-0.42c-0.27-0.28-0.41-0.71-0.41-1.28v-7.82h1.8v8.12h0.76v1.4H93.35L93.35,60.27z M90.05,60.27
		c-0.63,0-1.07-0.14-1.34-0.42c-0.27-0.28-0.4-0.71-0.4-1.28v-7.82h1.8v8.12h0.76v1.4H90.05L90.05,60.27z M83.6,58.81
		c0.52,0,0.91-0.15,1.19-0.47c0.28-0.31,0.42-0.77,0.42-1.4V54.6c0-0.62-0.14-1.09-0.42-1.4c-0.28-0.31-0.67-0.47-1.19-0.47
		c-0.52,0-0.91,0.16-1.19,0.47c-0.28,0.31-0.42,0.78-0.42,1.4v2.35c0,0.62,0.14,1.09,0.42,1.4C82.69,58.66,83.08,58.81,83.6,58.81
		L83.6,58.81z M83.6,60.42c-0.54,0-1.03-0.08-1.47-0.25c-0.44-0.17-0.81-0.44-1.12-0.81c-0.31-0.37-0.55-0.85-0.72-1.44
		c-0.17-0.59-0.26-1.3-0.26-2.14c0-0.84,0.09-1.55,0.26-2.14c0.17-0.59,0.41-1.07,0.72-1.44c0.31-0.37,0.68-0.64,1.12-0.81
		c0.44-0.17,0.93-0.25,1.47-0.25c0.54,0,1.03,0.08,1.47,0.25c0.44,0.17,0.81,0.44,1.12,0.81c0.31,0.37,0.55,0.85,0.72,1.44
		c0.17,0.59,0.26,1.3,0.26,2.14c0,0.84-0.09,1.55-0.26,2.14c-0.17,0.59-0.41,1.07-0.72,1.44c-0.31,0.37-0.68,0.64-1.12,0.81
		C84.63,60.34,84.14,60.42,83.6,60.42L83.6,60.42z M164.15,44.21c7.59,0,13.76-4.93,13.76-13.14V7.09h-7.51v24.12
		c0,3.29-2.96,5.96-6.25,5.96h-0.59c-3.29,0-6.25-2.68-6.25-5.96V7.09h-7.51v23.98c0,8.21,6.17,13.14,13.76,13.14H164.15
		L164.15,44.21z M135.52,14.03v29.65h-7.81V14.03H118V7.09h27.23v6.94H135.52L135.52,14.03z M106.09,19.86h-0.15l-9.03,15.77
		L87.93,19.5h-0.15v24.18h-7.35V7.09h8.27l8.21,14.22h0.1l8.11-14.22h8.32v36.59h-7.35V19.86L106.09,19.86z"/>
</g>
</svg>
