<?xml version="1.0" encoding="UTF-8" standalone="no"?>
<!-- Created with Inkscape (http://www.inkscape.org/) -->

<svg
   version="1.1"
   id="svg2"
   width="1122.52"
   height="793.70135"
   viewBox="0 0 1122.52 793.70135"
   sodipodi:docname="APC 20years Vertical LOGO.ai"
   xmlns:inkscape="http://www.inkscape.org/namespaces/inkscape"
   xmlns:sodipodi="http://sodipodi.sourceforge.net/DTD/sodipodi-0.dtd"
   xmlns="http://www.w3.org/2000/svg"
   xmlns:svg="http://www.w3.org/2000/svg">
  <defs
     id="defs6">
    <clipPath
       clipPathUnits="userSpaceOnUse"
       id="clipPath16">
      <path
         d="M 0,595.276 H 841.89 V 0 H 0 Z"
         id="path14" />
    </clipPath>
  </defs>
  <sodipodi:namedview
     id="namedview4"
     pagecolor="#ffffff"
     bordercolor="#000000"
     borderopacity="0.25"
     inkscape:showpageshadow="2"
     inkscape:pageopacity="0.0"
     inkscape:pagecheckerboard="0"
     inkscape:deskcolor="#d1d1d1" />
  <g
     id="g8"
     inkscape:groupmode="layer"
     inkscape:label="APC 20years Vertical LOGO"
     transform="matrix(1.3333333,0,0,-1.3333333,0,793.70133)">
    <g
       id="g10">
      <g
         id="g12"
         clip-path="url(#clipPath16)">
        <g
           id="g18"
           transform="translate(420.1304,404.1121)">
          <path
             d="m 0,0 c -4.745,5.106 -12.179,8.643 -21.595,8.81 -22.894,0.403 -28.846,-16.085 -30.535,-20.029 -3.131,-7.263 -7.358,-16.075 -12.008,-22.413 -6.391,-8.712 -29.687,-24.385 -55.727,-11.894 v -51.496 h -18.921 c 0,26.093 -0.1,40.717 -0.074,50.067 0.025,13.373 0.049,42.171 0.554,44.954 5.72,32.371 55.185,33.581 70.466,11.759 0,0 -5.38,-6.286 -9.143,-16.524 -0.933,1.616 -1.504,2.404 -2.647,3.784 -10.945,13.133 -35.967,12.219 -39.346,-5.622 -3.565,-18.846 13.008,-25.929 27.475,-22.114 13.094,3.453 18.431,20.915 24.351,31.923 C -50.317,32.509 -9.722,25.057 0,0"
             style="fill:#231f20;fill-opacity:1;fill-rule:nonzero;stroke:none"
             id="path20" />
        </g>
        <g
           id="g22"
           transform="translate(385.4366,376.0507)">
          <path
             d="M 0,0 C -0.38,0 -0.767,0.098 -1.12,0.304 -2.177,0.921 -2.534,2.28 -1.914,3.338 l 15.025,25.714 c 0.617,1.058 1.975,1.415 3.035,0.798 1.057,-0.619 1.413,-1.977 0.796,-3.035 L 1.917,1.1 C 1.505,0.393 0.761,0 0,0"
             style="fill:#b1b5b6;fill-opacity:1;fill-rule:nonzero;stroke:none"
             id="path24" />
        </g>
        <g
           id="g26"
           transform="translate(396.1656,374.3421)">
          <path
             d="M 0,0 C -0.38,0 -0.768,0.098 -1.121,0.304 -2.177,0.926 -2.53,2.284 -1.909,3.34 l 13.961,23.775 c 0.618,1.057 1.977,1.41 3.033,0.79 1.06,-0.621 1.411,-1.98 0.789,-3.036 L 1.914,1.095 C 1.503,0.391 0.761,0 0,0"
             style="fill:#b1b5b6;fill-opacity:1;fill-rule:nonzero;stroke:none"
             id="path28" />
        </g>
        <g
           id="g30"
           transform="translate(408.6958,376.0507)">
          <path
             d="m 0,0 c -0.379,0 -0.762,0.097 -1.112,0.3 -1.06,0.616 -1.421,1.972 -0.805,3.032 l 8.668,14.924 c 0.617,1.059 1.974,1.419 3.032,0.803 1.059,-0.614 1.418,-1.972 0.804,-3.031 L 1.922,1.103 C 1.508,0.396 0.764,0 0,0"
             style="fill:#b1b5b6;fill-opacity:1;fill-rule:nonzero;stroke:none"
             id="path32" />
        </g>
        <g
           id="g34"
           transform="translate(377.8569,383.2461)">
          <path
             d="M 0,0 C -0.377,0 -0.765,0.098 -1.117,0.302 -2.173,0.922 -2.53,2.28 -1.912,3.337 L 8.387,20.966 c 0.62,1.056 1.979,1.415 3.037,0.796 1.055,-0.617 1.412,-1.977 0.795,-3.034 L 1.918,1.1 C 1.507,0.393 0.764,0 0,0"
             style="fill:#b1b5b6;fill-opacity:1;fill-rule:nonzero;stroke:none"
             id="path36" />
        </g>
        <path
           d="m 447.096,382.978 h -5.98 v -28.806 h 5.98 z m 16.747,-6.995 c -1.668,0 -3.022,-0.436 -4.065,-1.31 -0.638,-0.52 -1.388,-1.491 -2.247,-2.911 v 3.711 h -5.316 v -21.301 h 5.609 v 10.182 c 0,1.708 0.214,2.97 0.644,3.792 0.769,1.459 2.275,2.188 4.516,2.188 0.169,0 0.39,-0.006 0.664,-0.019 0.274,-0.013 0.585,-0.04 0.937,-0.078 v 5.706 c -0.246,0.013 -0.407,0.023 -0.478,0.03 -0.072,0.006 -0.16,0.01 -0.264,0.01 m 12.88,-4.535 c 1.315,0 2.415,-0.383 3.303,-1.148 0.887,-0.764 1.382,-1.887 1.483,-3.366 h -9.594 c 0.202,1.386 0.695,2.486 1.483,3.297 0.787,0.813 1.895,1.217 3.325,1.217 m -0.004,4.592 c -3.121,0 -5.659,-0.984 -7.616,-2.953 -1.957,-1.969 -2.934,-4.798 -2.934,-8.488 0,-3.939 1.083,-6.781 3.25,-8.529 2.167,-1.746 4.667,-2.62 7.503,-2.62 3.435,0 6.106,1.036 8.014,3.107 1.226,1.303 1.915,2.586 2.064,3.85 h -5.685 c -0.332,-0.626 -0.714,-1.114 -1.148,-1.466 -0.792,-0.651 -1.824,-0.977 -3.092,-0.977 -1.196,0 -2.22,0.267 -3.071,0.802 -1.398,0.859 -2.14,2.357 -2.226,4.495 h 15.513 c 0.029,1.839 -0.034,3.248 -0.183,4.227 -0.259,1.671 -0.824,3.137 -1.698,4.403 -0.967,1.436 -2.195,2.487 -3.68,3.153 -1.485,0.665 -3.155,0.996 -5.011,0.996 m 19.075,6.938 h -5.569 v -28.806 h 5.569 z m 17.276,-20.52 c -0.04,-1.864 -0.571,-3.144 -1.597,-3.848 -1.025,-0.705 -2.146,-1.055 -3.363,-1.055 -0.769,0 -1.42,0.211 -1.955,0.634 -0.535,0.423 -0.805,1.11 -0.805,2.062 0,1.068 0.439,1.856 1.317,2.363 0.518,0.302 1.371,0.554 2.559,0.763 l 1.268,0.236 c 0.636,0.116 1.133,0.244 1.498,0.381 0.362,0.137 0.722,0.316 1.078,0.537 z m -5.316,4.438 c -2.165,-0.275 -3.804,-0.73 -4.92,-1.369 -2.035,-1.173 -3.053,-3.069 -3.053,-5.687 0,-2.02 0.632,-3.58 1.898,-4.68 1.264,-1.101 2.867,-1.651 4.805,-1.651 1.52,0 2.883,0.345 4.088,1.036 1.011,0.586 1.902,1.295 2.675,2.13 0.038,-0.483 0.091,-0.912 0.156,-1.29 0.065,-0.379 0.183,-0.781 0.352,-1.213 h 6.057 v 0.822 c -0.364,0.168 -0.638,0.383 -0.821,0.644 -0.181,0.261 -0.293,0.756 -0.331,1.485 -0.027,0.965 -0.04,1.786 -0.04,2.462 v 9.774 c 0,2.565 -0.91,4.311 -2.727,5.236 -1.818,0.925 -3.899,1.388 -6.241,1.388 -3.6,0 -6.138,-0.939 -7.617,-2.816 -0.929,-1.196 -1.451,-2.728 -1.569,-4.592 h 5.373 c 0.133,0.822 0.396,1.473 0.792,1.955 0.556,0.653 1.5,0.977 2.833,0.977 1.19,0 2.092,-0.166 2.704,-0.497 0.616,-0.333 0.921,-0.937 0.921,-1.809 0,-0.716 -0.398,-1.245 -1.201,-1.582 -0.446,-0.196 -1.187,-0.358 -2.224,-0.489 z m 27.529,9.087 c -1.752,0 -3.197,-0.432 -4.339,-1.291 -0.636,-0.48 -1.312,-1.27 -2.024,-2.363 v 3.106 h -5.394 v -21.263 h 5.569 v 11.532 c 0,1.315 0.181,2.395 0.543,3.244 0.7,1.601 1.987,2.403 3.861,2.403 1.525,0 2.561,-0.547 3.105,-1.643 0.297,-0.598 0.444,-1.457 0.444,-2.578 v -12.958 h 5.708 v 14.344 c 0,2.671 -0.699,4.584 -2.093,5.738 -1.395,1.152 -3.187,1.729 -5.38,1.729 m 20.507,0 c -2.801,0 -5.038,-1.043 -6.713,-3.128 -1.674,-2.083 -2.51,-4.943 -2.51,-8.579 0,-3.153 0.851,-5.735 2.551,-7.749 1.699,-2.011 3.793,-3.018 6.28,-3.018 1.513,0 2.777,0.286 3.794,0.859 1.015,0.573 1.921,1.494 2.715,2.755 v -2.951 h 5.413 v 28.768 h -5.647 v -10.163 c -0.625,1.003 -1.441,1.789 -2.443,2.355 -1.005,0.567 -2.151,0.851 -3.44,0.851 m 1.211,-17.783 c -1.575,0 -2.751,0.587 -3.526,1.767 -0.777,1.179 -1.162,2.753 -1.162,4.72 0,1.824 0.381,3.351 1.141,4.583 0.763,1.23 1.957,1.848 3.587,1.848 1.068,0 2.006,-0.34 2.814,-1.018 1.317,-1.12 1.974,-2.982 1.974,-5.588 0,-1.864 -0.411,-3.383 -1.232,-4.554 -0.82,-1.173 -2.018,-1.758 -3.596,-1.758"
           style="fill:#e82c2e;fill-opacity:1;fill-rule:nonzero;stroke:none"
           id="path38" />
        <g
           id="g40"
           transform="translate(455.1174,403.9232)">
          <path
             d="m 0,0 -5.243,22.649 h -8.758 V -6.157 h 5.607 v 19.486 c 0,0.558 -0.006,1.344 -0.019,2.355 -0.012,1.009 -0.019,1.786 -0.019,2.333 l 5.42,-24.174 h 5.849 l 5.46,24.174 C 8.297,17.47 8.29,16.693 8.276,15.684 8.263,14.673 8.257,13.887 8.257,13.329 V -6.157 h 5.609 V 22.649 H 5.205 Z m 24.705,22.826 h -5.647 v -5.139 h 5.647 z M 19.056,-6.157 h 5.647 V 15.144 H 19.056 Z M 48.54,7.505 c -0.314,3.035 -1.321,5.152 -3.023,6.35 -1.702,1.199 -3.89,1.799 -6.563,1.799 -3.143,0 -5.607,-1.017 -7.395,-3.05 -1.787,-2.032 -2.68,-4.874 -2.68,-8.528 0,-3.238 0.809,-5.875 2.427,-7.907 1.615,-2.031 4.139,-3.048 7.57,-3.048 3.429,0 6.018,1.219 7.766,3.654 1.095,1.51 1.708,3.113 1.839,4.807 h -5.687 c -0.118,-1.119 -0.451,-2.031 -0.999,-2.734 -0.549,-0.706 -1.476,-1.055 -2.782,-1.055 -1.841,0 -3.094,0.884 -3.762,2.656 -0.364,0.95 -0.548,2.203 -0.548,3.764 0,1.636 0.184,2.948 0.548,3.936 0.693,1.862 1.978,2.795 3.859,2.795 1.32,0 2.291,-0.431 2.919,-1.291 0.432,-0.638 0.699,-1.354 0.805,-2.148 z m 15.371,8.149 c -1.666,0 -3.022,-0.438 -4.065,-1.31 -0.638,-0.52 -1.386,-1.491 -2.247,-2.911 v 3.711 H 52.285 V -6.157 h 5.609 V 4.025 c 0,1.706 0.215,2.97 0.645,3.792 0.768,1.459 2.272,2.188 4.513,2.188 0.169,0 0.39,-0.006 0.666,-0.019 0.271,-0.013 0.585,-0.04 0.937,-0.078 v 5.706 c -0.249,0.013 -0.408,0.023 -0.478,0.03 -0.074,0.006 -0.16,0.01 -0.266,0.01 M 77.468,-2.207 c -1.628,0 -2.882,0.577 -3.762,1.735 -0.88,1.159 -1.319,2.804 -1.319,4.937 0,2.134 0.439,3.777 1.319,4.927 0.88,1.152 2.134,1.727 3.762,1.727 1.628,0 2.879,-0.575 3.751,-1.727 0.874,-1.15 1.31,-2.793 1.31,-4.927 0,-2.133 -0.436,-3.778 -1.31,-4.937 -0.872,-1.158 -2.123,-1.735 -3.751,-1.735 m 10.904,6.672 c 0,3.073 -0.899,5.734 -2.696,7.985 -1.799,2.254 -4.528,3.379 -8.189,3.379 -3.661,0 -6.391,-1.125 -8.187,-3.379 -1.799,-2.251 -2.699,-4.912 -2.699,-7.985 0,-3.125 0.9,-5.796 2.699,-8.016 1.796,-2.218 4.526,-3.328 8.187,-3.328 3.661,0 6.39,1.11 8.189,3.328 1.797,2.22 2.696,4.891 2.696,8.016 m 15.549,11.149 c -1.561,0 -2.846,-0.326 -3.855,-0.977 -0.853,-0.521 -1.632,-1.277 -2.34,-2.267 V 22.611 H 92.157 V -6.157 h 5.491 v 2.679 c 0.746,-1.044 1.441,-1.773 2.084,-2.19 1.072,-0.704 2.491,-1.055 4.261,-1.055 2.816,0 5.008,1.087 6.58,3.264 1.571,2.176 2.357,4.917 2.357,8.228 0,3.191 -0.797,5.796 -2.391,7.816 -1.592,2.02 -3.798,3.029 -6.618,3.029 m -1.405,-17.743 c -1.668,0 -2.911,0.598 -3.724,1.796 -0.815,1.199 -1.222,2.711 -1.222,4.535 0,1.55 0.196,2.814 0.59,3.791 0.763,1.837 2.161,2.756 4.198,2.756 2.009,0 3.389,-0.94 4.137,-2.815 0.394,-0.989 0.592,-2.241 0.592,-3.751 0,-1.891 -0.4,-3.414 -1.203,-4.575 -0.801,-1.158 -1.923,-1.737 -3.368,-1.737 m 20.002,24.955 h -5.647 v -5.139 h 5.647 z m -5.647,-28.983 h 5.647 v 21.301 h -5.647 z m 20.591,3.95 c -1.631,0 -2.884,0.577 -3.762,1.735 -0.88,1.159 -1.321,2.804 -1.321,4.937 0,2.134 0.441,3.777 1.321,4.927 0.878,1.152 2.131,1.727 3.762,1.727 1.628,0 2.879,-0.575 3.751,-1.727 0.874,-1.15 1.31,-2.793 1.31,-4.927 0,-2.133 -0.436,-3.778 -1.31,-4.937 -0.872,-1.158 -2.123,-1.735 -3.751,-1.735 m 10.904,6.672 c 0,3.073 -0.899,5.734 -2.698,7.985 -1.797,2.254 -4.527,3.379 -8.187,3.379 -3.661,0 -6.391,-1.125 -8.188,-3.379 -1.798,-2.251 -2.698,-4.912 -2.698,-7.985 0,-3.125 0.9,-5.796 2.698,-8.016 1.797,-2.218 4.527,-3.328 8.188,-3.328 3.66,0 6.39,1.11 8.187,3.328 1.799,2.22 2.698,4.891 2.698,8.016 m 27.782,11.149 c -1.407,0 -2.685,-0.293 -3.831,-0.878 -1.08,-0.588 -1.986,-1.506 -2.715,-2.757 -0.417,1.042 -1.03,1.895 -1.839,2.561 -1.002,0.716 -2.317,1.074 -3.945,1.074 -1.721,0 -3.121,-0.417 -4.202,-1.251 -0.613,-0.468 -1.264,-1.258 -1.955,-2.363 v 3.106 h -5.413 V -6.157 h 5.647 V 6.664 c 0,1.159 0.15,2.033 0.451,2.619 0.545,1.027 1.613,1.543 3.204,1.543 1.369,0 2.287,-0.516 2.755,-1.543 0.261,-0.573 0.391,-1.492 0.391,-2.756 V -6.157 h 5.61 V 6.527 c 0,0.95 0.149,1.766 0.448,2.444 0.586,1.276 1.649,1.914 3.187,1.914 1.327,0 2.239,-0.495 2.736,-1.485 0.259,-0.522 0.39,-1.185 0.39,-1.994 V -6.157 h 5.706 l 0.04,13.426 c 0,1.382 -0.066,2.431 -0.196,3.147 -0.209,1.082 -0.613,1.994 -1.211,2.736 -0.744,0.912 -1.572,1.55 -2.484,1.914 -0.912,0.365 -1.836,0.548 -2.774,0.548 m 20.651,-4.495 c 1.314,0 2.414,-0.383 3.302,-1.148 0.889,-0.764 1.384,-1.887 1.485,-3.366 h -9.596 c 0.202,1.386 0.697,2.486 1.485,3.297 0.785,0.813 1.893,1.217 3.324,1.217 m -0.003,4.592 c -3.121,0 -5.661,-0.984 -7.616,-2.953 -1.957,-1.969 -2.936,-4.798 -2.936,-8.489 0,-3.938 1.085,-6.78 3.25,-8.528 2.17,-1.746 4.67,-2.62 7.505,-2.62 3.433,0 6.106,1.036 8.014,3.107 1.226,1.303 1.915,2.586 2.064,3.85 h -5.687 c -0.33,-0.626 -0.714,-1.114 -1.145,-1.466 -0.795,-0.651 -1.824,-0.977 -3.093,-0.977 -1.198,0 -2.22,0.267 -3.073,0.802 -1.396,0.859 -2.14,2.357 -2.226,4.495 h 15.515 c 0.028,1.839 -0.034,3.248 -0.183,4.227 -0.259,1.671 -0.826,3.137 -1.698,4.405 -0.969,1.434 -2.195,2.485 -3.682,3.151 -1.485,0.665 -3.155,0.996 -5.009,0.996 m 0.003,-4.592 c 1.314,0 2.414,-0.383 3.302,-1.148 0.889,-0.764 1.384,-1.887 1.485,-3.366 h -9.596 c 0.202,1.386 0.697,2.486 1.485,3.297 0.785,0.813 1.893,1.217 3.324,1.217 m -0.003,4.592 c -3.121,0 -5.661,-0.984 -7.616,-2.953 -1.957,-1.969 -2.936,-4.798 -2.936,-8.489 0,-3.938 1.085,-6.78 3.25,-8.528 2.17,-1.746 4.67,-2.62 7.505,-2.62 3.433,0 6.106,1.036 8.014,3.107 1.226,1.303 1.915,2.586 2.064,3.85 h -5.687 c -0.33,-0.626 -0.714,-1.114 -1.145,-1.466 -0.795,-0.651 -1.824,-0.977 -3.093,-0.977 -1.198,0 -2.22,0.267 -3.073,0.802 -1.396,0.859 -2.14,2.357 -2.226,4.495 h 15.515 c 0.028,1.839 -0.034,3.248 -0.183,4.227 -0.259,1.671 -0.826,3.137 -1.698,4.405 -0.969,1.434 -2.195,2.485 -3.682,3.151 -1.485,0.665 -3.155,0.996 -5.009,0.996 m 0.003,-4.592 c 1.314,0 2.414,-0.383 3.302,-1.148 0.889,-0.764 1.384,-1.887 1.485,-3.366 h -9.596 c 0.202,1.386 0.697,2.486 1.485,3.297 0.785,0.813 1.893,1.217 3.324,1.217 m -0.003,4.592 c -3.121,0 -5.661,-0.984 -7.616,-2.953 -1.957,-1.969 -2.936,-4.798 -2.936,-8.489 0,-3.938 1.085,-6.78 3.25,-8.528 2.17,-1.746 4.67,-2.62 7.505,-2.62 3.433,0 6.106,1.036 8.014,3.107 1.226,1.303 1.915,2.586 2.064,3.85 h -5.687 c -0.33,-0.626 -0.714,-1.114 -1.145,-1.466 -0.795,-0.651 -1.824,-0.977 -3.093,-0.977 -1.198,0 -2.22,0.267 -3.073,0.802 -1.396,0.859 -2.14,2.357 -2.226,4.495 h 15.515 c 0.028,1.839 -0.034,3.248 -0.183,4.227 -0.259,1.671 -0.826,3.137 -1.698,4.405 -0.969,1.434 -2.195,2.485 -3.682,3.151 -1.485,0.665 -3.155,0.996 -5.009,0.996 m 0.003,-4.592 c 1.314,0 2.414,-0.383 3.302,-1.148 0.889,-0.764 1.384,-1.887 1.485,-3.366 h -9.596 c 0.202,1.386 0.697,2.486 1.485,3.297 0.785,0.813 1.893,1.217 3.324,1.217 m -0.003,4.592 c -3.121,0 -5.661,-0.984 -7.616,-2.953 -1.957,-1.969 -2.936,-4.798 -2.936,-8.489 0,-3.938 1.085,-6.78 3.25,-8.528 2.17,-1.746 4.67,-2.62 7.505,-2.62 3.433,0 6.106,1.036 8.014,3.107 1.226,1.303 1.915,2.586 2.064,3.85 h -5.687 c -0.33,-0.626 -0.714,-1.114 -1.145,-1.466 -0.795,-0.651 -1.824,-0.977 -3.093,-0.977 -1.198,0 -2.22,0.267 -3.073,0.802 -1.396,0.859 -2.14,2.357 -2.226,4.495 h 15.515 c 0.028,1.839 -0.034,3.248 -0.183,4.227 -0.259,1.671 -0.826,3.137 -1.698,4.405 -0.969,1.434 -2.195,2.485 -3.682,3.151 -1.485,0.665 -3.155,0.996 -5.009,0.996"
             style="fill:#e82c2e;fill-opacity:1;fill-rule:nonzero;stroke:none"
             id="path42" />
        </g>
        <g
           id="g44"
           transform="translate(256.0426,382.5076)">
          <path
             d="m 0,0 c 0,-1.061 0.068,-3.127 -0.15,-4.927 -0.248,-1.775 -0.879,-3.497 -1.867,-5.246 -1.047,-1.722 -2.588,-3.231 -4.703,-4.45 -2.115,-1.245 -5.315,-1.218 -9.164,-1.218 -1.568,0 -3.079,0.132 -4.561,0.423 -1.456,0.264 -2.748,0.714 -3.876,1.376 -1.102,0.663 -1.977,1.567 -2.614,2.73 -0.632,1.168 -0.955,2.598 -0.955,4.266 0,1.774 0.323,3.23 0.955,4.397 0.637,1.138 1.485,2.093 2.555,2.86 1.047,0.742 2.309,1.352 3.743,1.802 1.402,0.45 2.855,0.794 4.339,1.059 1.567,0.266 3.139,0.504 4.703,0.661 1.538,0.186 3.054,0.398 4.482,0.662 1.429,0.267 2.747,0.61 4.009,1.01 C -1.867,5.8 -0.821,6.356 0,7.072 Z m 19.62,-26.625 v 51.153 c 0,4.158 -0.984,7.523 -2.918,10.039 -1.905,2.516 -4.425,4.502 -7.441,5.934 -3.047,1.404 -6.41,2.36 -10.093,2.861 -3.684,0.476 -7.312,0.717 -10.912,0.717 -3.948,0 -7.896,-0.373 -11.817,-1.142 -3.922,-0.739 -7.445,-1.986 -10.544,-3.761 -3.151,-1.801 -5.747,-4.131 -7.76,-7.073 -2.016,-2.941 -4.584,-9.985 -4.848,-14.437 h 19.629 c 0.347,3.735 3.047,9.776 5.272,11.364 2.2,1.616 5.246,2.411 9.111,2.411 1.749,0 3.396,-0.105 4.899,-0.344 1.511,-0.212 2.862,-0.66 4.004,-1.325 1.164,-0.662 2.065,-1.617 2.752,-2.806 0.715,-1.193 1.061,-2.809 1.061,-4.848 0.077,-1.961 -0.503,-3.446 -1.799,-4.477 -1.3,-1.008 -3.048,-1.776 -5.247,-2.305 -2.226,-0.555 -4.77,-0.954 -7.631,-1.192 -2.835,-0.291 -5.724,-0.635 -8.662,-1.086 -2.963,-0.451 -5.881,-1.033 -8.796,-1.776 -2.886,-0.766 -5.484,-1.907 -7.732,-3.414 -2.251,-1.512 -4.103,-3.525 -5.512,-6.066 -1.427,-2.517 -2.14,-5.752 -2.14,-9.644 0,-3.55 0.604,-6.623 1.825,-9.194 1.272,-2.568 2.992,-4.688 5.19,-6.382 2.224,-1.695 4.795,-2.941 7.76,-3.737 2.943,-0.794 6.094,-1.191 9.54,-1.191 h 42.834 z"
             style="fill:#e82c2e;fill-opacity:1;fill-rule:nonzero;stroke:none"
             id="path46" />
        </g>
        <g
           id="g48"
           transform="translate(419.5837,373.6233)">
          <path
             d="m 0,0 c -4.181,-8.751 -13.481,-19.381 -33.955,-19.381 -9.987,0 -19.915,6.437 -23.25,9.324 -1.032,0.876 -2.038,1.802 -2.94,2.808 1.145,1.298 5.835,6.184 10.332,16.717 -0.022,-0.052 0.025,-0.082 0.056,-0.132 0.794,-1.485 7.78,-17.119 28.686,-17.119 9.062,0 16.307,3.006 21.071,7.783"
             style="fill:#e82c2e;fill-opacity:1;fill-rule:nonzero;stroke:none"
             id="path50" />
        </g>
        <g
           id="g52"
           transform="translate(377.7601,208.7447)">
          <path
             d="m 0,0 h 0.01 z m -13.58,37.202 c -2.19,0 -4.04,-0.493 -5.498,-1.464 -1.484,-0.99 -2.715,-2.299 -3.661,-3.891 -0.965,-1.62 -1.729,-3.481 -2.27,-5.531 -0.543,-2.054 -0.939,-4.174 -1.178,-6.3 -0.235,-2.13 -0.375,-4.219 -0.413,-6.208 -0.042,-2.022 -0.06,-3.745 -0.06,-5.172 0,-2.378 0.08,-5.276 0.238,-8.612 0.156,-3.331 0.652,-6.582 1.474,-9.664 0.809,-3.052 2.119,-5.694 3.892,-7.852 1.718,-2.092 4.234,-3.153 7.476,-3.153 3.322,0 5.899,1.062 7.659,3.157 1.808,2.155 3.137,4.795 3.949,7.847 0.82,3.089 1.315,6.34 1.473,9.664 0.156,3.351 0.236,6.248 0.236,8.613 0,1.427 -0.02,3.151 -0.057,5.172 -0.041,2.005 -0.201,4.091 -0.474,6.199 -0.277,2.135 -0.675,4.26 -1.18,6.318 -0.506,2.052 -1.268,3.907 -2.263,5.514 -0.99,1.597 -2.261,2.907 -3.78,3.896 -1.501,0.973 -3.373,1.467 -5.563,1.467 m 0,-58.847 c -3.557,0 -6.331,1.184 -8.249,3.518 -1.864,2.27 -3.239,5.039 -4.086,8.23 -0.84,3.15 -1.346,6.473 -1.505,9.874 -0.159,3.352 -0.24,6.265 -0.24,8.659 0,1.432 0.018,3.163 0.06,5.192 0.039,2.019 0.18,4.138 0.419,6.298 0.244,2.176 0.65,4.344 1.205,6.446 0.566,2.139 1.366,4.087 2.377,5.786 1.023,1.721 2.358,3.138 3.966,4.212 1.626,1.083 3.662,1.632 6.053,1.632 2.387,0 4.441,-0.548 6.108,-1.629 1.644,-1.07 3.018,-2.485 4.084,-4.207 1.051,-1.696 1.853,-3.648 2.385,-5.803 0.515,-2.093 0.918,-4.255 1.201,-6.427 0.278,-2.144 0.44,-4.266 0.482,-6.308 0.037,-2.03 0.057,-3.76 0.057,-5.192 0,-2.38 -0.08,-5.293 -0.238,-8.659 v -0.001 c -0.16,-3.394 -0.667,-6.716 -1.504,-9.873 -0.85,-3.196 -2.247,-5.966 -4.15,-8.234 -1.959,-2.332 -4.793,-3.514 -8.425,-3.514 m -30.209,38.51 c 0.033,0 0.068,-0.003 0.102,-0.011 0.246,-0.051 0.416,-0.276 0.397,-0.526 -0.189,-2.482 -0.284,-5.07 -0.284,-7.692 0,-8.26 0.814,-15.246 2.421,-20.766 1.6,-5.507 3.793,-9.955 6.513,-13.222 2.713,-3.253 5.912,-5.608 9.507,-7 3.617,-1.4 7.505,-2.111 11.553,-2.111 4.13,0 8.057,0.711 11.671,2.111 3.593,1.389 6.812,3.745 9.569,7.003 2.76,3.269 4.971,7.717 6.57,13.219 1.608,5.525 2.423,12.511 2.423,20.766 0,8.015 -0.814,14.841 -2.422,20.288 -1.6,5.425 -3.811,9.833 -6.571,13.1 -2.756,3.257 -5.975,5.614 -9.569,7.004 -3.617,1.401 -7.544,2.111 -11.671,2.111 -4.046,0 -7.933,-0.71 -11.553,-2.111 -3.596,-1.393 -6.795,-3.748 -9.507,-7.001 -2.72,-3.265 -4.913,-7.673 -6.514,-13.103 -0.259,-0.879 -0.513,-1.88 -0.775,-3.059 -0.055,-0.247 -0.276,-0.412 -0.54,-0.389 -0.252,0.026 -0.444,0.237 -0.448,0.491 -0.051,3.798 -0.812,7.274 -2.265,10.329 -1.506,3.17 -3.566,5.879 -6.125,8.054 -2.564,2.172 -5.577,3.864 -8.953,5.028 -3.385,1.169 -6.997,1.761 -10.737,1.761 -4.907,0 -9.308,-0.847 -13.078,-2.518 -3.766,-1.671 -6.932,-4.029 -9.408,-7.01 -2.489,-2.993 -4.381,-6.543 -5.625,-10.55 -1.161,-3.737 -1.722,-7.819 -1.668,-12.132 0.003,-0.268 0.239,-0.502 0.505,-0.502 h 14.651 c 0.068,0.003 0.099,0.045 0.105,0.178 0.076,1.469 0.293,4.417 0.625,6.147 0.446,2.303 1.205,4.437 2.259,6.342 1.065,1.927 2.501,3.508 4.269,4.699 1.782,1.203 3.98,1.813 6.532,1.813 3.77,0 6.913,-1.189 9.341,-3.536 2.433,-2.351 3.667,-5.658 3.667,-9.829 0,-2.616 -0.604,-4.985 -1.793,-7.04 -1.176,-2.025 -2.651,-3.868 -4.382,-5.477 -1.726,-1.603 -3.653,-3.084 -5.732,-4.404 -2.031,-1.288 -3.989,-2.587 -5.82,-3.86 -3.561,-2.455 -6.983,-4.897 -10.171,-7.257 -3.166,-2.345 -5.963,-4.944 -8.313,-7.724 -2.34,-2.77 -4.216,-5.948 -5.576,-9.447 -1.232,-3.165 -1.915,-6.903 -2.032,-11.112 -0.006,-0.227 0.078,-0.448 0.233,-0.607 0.143,-0.147 0.333,-0.229 0.534,-0.229 15.027,-0.008 51.006,-0.025 60.56,-0.009 0.211,10e-4 0.393,0.116 0.485,0.31 0.09,0.188 0.066,0.395 -0.063,0.555 -3.182,3.946 -5.351,9.048 -6.36,11.739 -0.212,0.563 -0.765,0.941 -1.376,0.941 h -31.986 c -0.551,0 -0.785,0.236 -0.884,0.434 -0.139,0.278 -0.081,0.618 0.157,0.935 1.984,2.645 4.278,5.009 6.819,7.026 2.683,2.132 5.501,4.165 8.374,6.043 2.78,1.813 5.643,3.715 8.511,5.654 2.783,1.881 5.299,4.002 7.483,6.303 2.171,2.287 3.942,4.945 5.265,7.9 0.201,0.451 0.395,0.949 0.628,1.615 0.072,0.204 0.263,0.335 0.472,0.335 m 30.209,-52.328 c -4.172,0 -8.181,0.733 -11.914,2.179 -3.755,1.452 -7.09,3.906 -9.913,7.292 -2.811,3.373 -5.068,7.943 -6.707,13.583 -1.632,5.611 -2.46,12.691 -2.46,21.045 0,1.629 0.036,3.245 0.109,4.831 -1.306,-2.645 -2.973,-5.043 -4.965,-7.141 -2.232,-2.353 -4.804,-4.52 -7.646,-6.442 -2.873,-1.943 -5.741,-3.848 -8.526,-5.664 -2.847,-1.86 -5.639,-3.875 -8.299,-5.988 -2.4,-1.905 -4.574,-4.128 -6.466,-6.612 h 31.739 c 1.026,0 1.955,-0.639 2.312,-1.59 0.795,-2.12 2.992,-7.482 6.203,-11.462 0.371,-0.46 0.442,-1.078 0.186,-1.614 -0.258,-0.541 -0.789,-0.878 -1.386,-0.879 -9.555,-0.016 -45.536,10e-4 -60.561,0.009 -0.474,10e-4 -0.918,0.189 -1.251,0.532 -0.342,0.352 -0.529,0.837 -0.516,1.332 0.12,4.323 0.827,8.175 2.1,11.447 1.399,3.601 3.332,6.875 5.744,9.73 2.401,2.839 5.254,5.491 8.482,7.882 3.197,2.367 6.627,4.815 10.197,7.275 1.841,1.28 3.81,2.587 5.853,3.883 2.027,1.286 3.907,2.731 5.586,4.292 1.66,1.542 3.073,3.307 4.199,5.245 1.1,1.901 1.658,4.101 1.658,6.539 0,3.889 -1.131,6.954 -3.363,9.111 -2.234,2.159 -5.143,3.254 -8.645,3.254 -2.35,0 -4.358,-0.552 -5.974,-1.642 -1.634,-1.102 -2.965,-2.567 -3.952,-4.354 -1.003,-1.813 -1.726,-3.848 -2.151,-6.047 -0.323,-1.68 -0.54,-4.665 -0.61,-6.009 -0.036,-0.696 -0.459,-1.127 -1.103,-1.127 h -14.651 c -0.822,0 -1.497,0.668 -1.505,1.49 -0.055,4.418 0.521,8.604 1.713,12.441 1.283,4.133 3.238,7.797 5.81,10.892 2.576,3.101 5.864,5.551 9.773,7.285 3.899,1.728 8.435,2.604 13.483,2.604 3.851,0 7.574,-0.611 11.063,-1.815 3.494,-1.205 6.615,-2.958 9.275,-5.212 2.668,-2.267 4.814,-5.088 6.381,-8.387 1.097,-2.31 1.817,-4.846 2.15,-7.568 0.005,0.016 0.01,0.033 0.015,0.05 1.64,5.562 3.896,10.09 6.706,13.46 2.821,3.385 6.156,5.839 9.913,7.293 3.736,1.446 7.744,2.179 11.914,2.179 4.251,0 8.3,-0.733 12.032,-2.179 3.751,-1.451 7.107,-3.904 9.972,-7.29 2.85,-3.375 5.127,-7.904 6.766,-13.462 1.635,-5.54 2.463,-12.461 2.463,-20.572 0,-8.349 -0.828,-15.43 -2.462,-21.045 -1.639,-5.637 -3.916,-10.208 -6.767,-13.586 -2.867,-3.387 -6.222,-5.839 -9.972,-7.289 -3.73,-1.446 -7.778,-2.179 -12.032,-2.179"
             style="fill:#77787b;fill-opacity:1;fill-rule:nonzero;stroke:none"
             id="path54" />
        </g>
        <g
           id="g56"
           transform="translate(416.6849,249.2293)">
          <path
             d="M 0,0 5.271,-13.641 10.199,0 h 1.953 L 5.208,-18.416 C 4.918,-19.098 4.65,-19.661 4.402,-20.105 4.154,-20.55 3.88,-20.901 3.58,-21.16 c -0.3,-0.258 -0.65,-0.444 -1.054,-0.558 -0.403,-0.113 -0.915,-0.17 -1.535,-0.17 -0.392,0.021 -0.697,0.036 -0.914,0.046 -0.217,0.011 -0.408,0.047 -0.573,0.109 v 1.643 c 0.226,-0.041 0.449,-0.077 0.666,-0.108 0.217,-0.031 0.439,-0.047 0.667,-0.047 0.434,0 0.79,0.062 1.069,0.186 0.28,0.124 0.522,0.294 0.729,0.512 0.206,0.216 0.382,0.48 0.527,0.79 0.145,0.31 0.299,0.651 0.465,1.023 L 4.309,-15.936 -2.078,0 Z"
             style="fill:#e82c2e;fill-opacity:1;fill-rule:nonzero;stroke:none"
             id="path58" />
        </g>
        <g
           id="g60"
           transform="translate(441.8743,244.4856)">
          <path
             d="m 0,0 c -0.237,0.682 -0.573,1.287 -1.008,1.814 -0.433,0.527 -0.961,0.95 -1.581,1.271 -0.62,0.32 -1.322,0.48 -2.108,0.48 -0.806,0 -1.519,-0.16 -2.139,-0.48 C -7.456,2.764 -7.983,2.341 -8.417,1.814 -8.852,1.287 -9.197,0.677 -9.456,-0.015 -9.715,-0.708 -9.885,-1.416 -9.968,-2.139 H 0.388 C 0.367,-1.395 0.237,-0.682 0,0 m -9.673,-5.968 c 0.196,-0.755 0.512,-1.431 0.945,-2.031 0.435,-0.599 0.982,-1.095 1.644,-1.488 0.661,-0.392 1.457,-0.589 2.387,-0.589 1.426,0 2.543,0.372 3.348,1.117 0.807,0.743 1.365,1.735 1.675,2.976 H 2.279 C 1.865,-7.802 1.105,-9.208 0,-10.2 c -1.105,-0.992 -2.672,-1.488 -4.697,-1.488 -1.261,0 -2.351,0.222 -3.271,0.667 -0.92,0.444 -1.669,1.054 -2.248,1.829 -0.578,0.775 -1.007,1.674 -1.286,2.697 -0.279,1.023 -0.419,2.103 -0.419,3.24 0,1.054 0.14,2.087 0.419,3.1 0.279,1.012 0.708,1.917 1.286,2.713 0.579,0.796 1.328,1.436 2.248,1.922 0.92,0.485 2.01,0.729 3.271,0.729 1.282,0 2.377,-0.259 3.287,-0.775 C -0.501,3.917 0.237,3.24 0.807,2.403 1.374,1.566 1.783,0.605 2.031,-0.48 2.279,-1.565 2.382,-2.666 2.341,-3.782 H -9.968 c 0,-0.703 0.099,-1.432 0.295,-2.186"
             style="fill:#e82c2e;fill-opacity:1;fill-rule:nonzero;stroke:none"
             id="path62" />
        </g>
        <g
           id="g64"
           transform="translate(457.0198,241.9744)">
          <path
             d="M 0,0 C -0.124,-0.228 -0.362,-0.393 -0.713,-0.496 -1.064,-0.6 -1.375,-0.672 -1.644,-0.713 -2.47,-0.858 -3.323,-0.987 -4.201,-1.101 -5.08,-1.214 -5.881,-1.385 -6.604,-1.612 -7.327,-1.84 -7.921,-2.165 -8.387,-2.588 c -0.465,-0.424 -0.697,-1.029 -0.697,-1.814 0,-0.496 0.098,-0.936 0.295,-1.318 0.195,-0.383 0.459,-0.713 0.79,-0.992 0.33,-0.279 0.713,-0.491 1.147,-0.636 0.434,-0.144 0.878,-0.216 1.333,-0.216 0.745,0 1.457,0.113 2.139,0.34 0.683,0.228 1.276,0.558 1.783,0.993 0.506,0.434 0.91,0.96 1.209,1.581 0.3,0.62 0.45,1.322 0.45,2.108 l 0,2.542 z m -9.766,4.775 c 0.33,0.682 0.78,1.24 1.349,1.674 0.567,0.434 1.234,0.754 1.999,0.961 0.765,0.206 1.612,0.31 2.543,0.31 0.702,0 1.405,-0.067 2.107,-0.201 C -1.064,7.384 -0.435,7.131 0.124,6.759 0.682,6.387 1.137,5.865 1.488,5.193 1.839,4.521 2.015,3.648 2.015,2.573 v -8.494 c 0,-0.786 0.382,-1.179 1.147,-1.179 0.228,0 0.435,0.042 0.62,0.124 V -8.619 C 3.555,-8.66 3.354,-8.691 3.178,-8.712 3.002,-8.732 2.779,-8.743 2.511,-8.743 2.015,-8.743 1.617,-8.676 1.317,-8.541 1.018,-8.407 0.785,-8.216 0.62,-7.968 0.454,-7.72 0.346,-7.425 0.295,-7.084 0.242,-6.743 0.217,-6.366 0.217,-5.953 H 0.155 c -0.351,-0.516 -0.709,-0.976 -1.07,-1.379 -0.361,-0.403 -0.765,-0.739 -1.209,-1.008 -0.444,-0.268 -0.951,-0.475 -1.519,-0.619 -0.569,-0.145 -1.246,-0.218 -2.031,-0.218 -0.744,0 -1.441,0.089 -2.093,0.264 -0.65,0.175 -1.219,0.454 -1.705,0.837 -0.485,0.382 -0.868,0.868 -1.147,1.457 -0.278,0.589 -0.418,1.286 -0.418,2.093 0,1.116 0.248,1.989 0.744,2.62 0.496,0.63 1.151,1.11 1.969,1.441 0.816,0.331 1.736,0.563 2.759,0.698 1.023,0.134 2.061,0.263 3.116,0.387 0.413,0.042 0.775,0.093 1.085,0.155 0.309,0.062 0.568,0.171 0.775,0.326 0.206,0.155 0.366,0.366 0.481,0.635 0.113,0.269 0.17,0.62 0.17,1.055 0,0.661 -0.109,1.203 -0.326,1.627 -0.216,0.423 -0.516,0.76 -0.899,1.008 -0.382,0.248 -0.826,0.418 -1.333,0.511 -0.507,0.093 -1.049,0.14 -1.627,0.14 -1.24,0 -2.254,-0.295 -3.039,-0.884 C -7.947,4.604 -8.36,3.659 -8.402,2.356 h -1.953 c 0.062,0.931 0.258,1.737 0.589,2.419"
             style="fill:#e82c2e;fill-opacity:1;fill-rule:nonzero;stroke:none"
             id="path66" />
        </g>
        <g
           id="g68"
           transform="translate(464.7386,249.2293)">
          <path
             d="m 0,0 v -3.751 h 0.062 c 0.497,1.302 1.266,2.304 2.31,3.007 1.043,0.702 2.289,1.023 3.735,0.961 V -1.736 C 5.219,-1.695 4.413,-1.813 3.689,-2.093 2.966,-2.372 2.341,-2.77 1.813,-3.286 1.287,-3.803 0.879,-4.418 0.589,-5.131 0.3,-5.844 0.155,-6.625 0.155,-7.472 v -8.526 H -1.798 V 0 Z"
             style="fill:#e82c2e;fill-opacity:1;fill-rule:nonzero;stroke:none"
             id="path70" />
        </g>
        <g
           id="g72"
           transform="translate(481.9144,246.1136)">
          <path
             d="M 0,0 C -0.228,0.444 -0.532,0.811 -0.915,1.101 -1.298,1.39 -1.736,1.602 -2.232,1.736 -2.729,1.87 -3.256,1.937 -3.813,1.937 -4.248,1.937 -4.687,1.891 -5.131,1.798 -5.576,1.705 -5.983,1.55 -6.355,1.333 -6.728,1.116 -7.027,0.832 -7.255,0.48 -7.482,0.129 -7.596,-0.305 -7.596,-0.822 c 0,-0.434 0.109,-0.801 0.325,-1.1 0.217,-0.3 0.492,-0.554 0.822,-0.76 0.331,-0.207 0.692,-0.377 1.085,-0.511 0.392,-0.135 0.755,-0.244 1.086,-0.326 l 2.603,-0.589 c 0.559,-0.083 1.112,-0.232 1.659,-0.45 0.547,-0.216 1.034,-0.501 1.457,-0.852 0.424,-0.352 0.77,-0.786 1.039,-1.302 0.268,-0.517 0.403,-1.127 0.403,-1.83 0,-0.868 -0.196,-1.607 -0.589,-2.216 -0.393,-0.61 -0.895,-1.106 -1.504,-1.488 -0.609,-0.383 -1.297,-0.656 -2.061,-0.822 -0.765,-0.165 -1.52,-0.248 -2.263,-0.248 -1.882,0 -3.406,0.444 -4.573,1.333 -1.168,0.889 -1.835,2.315 -2,4.279 h 1.953 c 0.083,-1.323 0.563,-2.321 1.441,-2.992 0.879,-0.672 1.969,-1.008 3.272,-1.008 0.474,0 0.965,0.052 1.472,0.155 0.506,0.104 0.977,0.279 1.41,0.528 0.435,0.248 0.791,0.562 1.071,0.945 0.278,0.382 0.418,0.852 0.418,1.41 0,0.476 -0.099,0.874 -0.294,1.194 -0.198,0.321 -0.461,0.589 -0.791,0.806 -0.331,0.217 -0.708,0.398 -1.132,0.543 -0.424,0.144 -0.853,0.268 -1.286,0.372 l -2.512,0.558 c -0.641,0.165 -1.229,0.357 -1.767,0.573 -0.538,0.218 -1.007,0.486 -1.411,0.807 -0.403,0.32 -0.718,0.712 -0.945,1.178 -0.228,0.465 -0.341,1.038 -0.341,1.72 0,0.807 0.181,1.498 0.542,2.078 0.361,0.578 0.832,1.043 1.411,1.395 0.578,0.351 1.225,0.609 1.938,0.775 0.713,0.165 1.421,0.248 2.124,0.248 0.805,0 1.555,-0.104 2.247,-0.31 C -0.595,3.064 0.016,2.744 0.542,2.31 1.069,1.875 1.488,1.338 1.798,0.698 2.108,0.057 2.283,-0.698 2.325,-1.566 H 0.372 C 0.351,-0.966 0.227,-0.445 0,0"
             style="fill:#e82c2e;fill-opacity:1;fill-rule:nonzero;stroke:none"
             id="path74" />
        </g>
        <g
           id="g76"
           transform="translate(500.5472,247.4622)">
          <path
             d="m 0,0 c -0.703,-0.393 -1.287,-0.91 -1.752,-1.55 -0.465,-0.641 -0.816,-1.369 -1.054,-2.186 -0.238,-0.817 -0.357,-1.648 -0.357,-2.495 0,-0.849 0.119,-1.68 0.357,-2.497 0.238,-0.816 0.589,-1.545 1.054,-2.185 0.465,-0.641 1.049,-1.158 1.752,-1.55 0.702,-0.393 1.519,-0.589 2.449,-0.589 0.93,0 1.746,0.196 2.449,0.589 0.703,0.392 1.287,0.909 1.751,1.55 0.466,0.64 0.817,1.369 1.055,2.185 0.237,0.817 0.357,1.648 0.357,2.497 0,0.847 -0.12,1.678 -0.357,2.495 C 7.466,-2.919 7.115,-2.191 6.649,-1.55 6.185,-0.91 5.601,-0.393 4.898,0 4.195,0.393 3.379,0.589 2.449,0.589 1.519,0.589 0.702,0.393 0,0 M 5.688,1.55 C 6.629,1.095 7.42,0.485 8.061,-0.279 c 0.64,-0.765 1.126,-1.658 1.457,-2.682 0.33,-1.023 0.496,-2.113 0.496,-3.27 0,-1.159 -0.166,-2.248 -0.496,-3.271 -0.331,-1.023 -0.817,-1.918 -1.457,-2.682 -0.641,-0.765 -1.432,-1.37 -2.373,-1.814 -0.94,-0.444 -2.02,-0.667 -3.239,-0.667 -1.22,0 -2.3,0.223 -3.24,0.667 -0.94,0.444 -1.731,1.049 -2.372,1.814 -0.641,0.764 -1.126,1.659 -1.457,2.682 -0.33,1.023 -0.496,2.112 -0.496,3.271 0,1.157 0.166,2.247 0.496,3.27 0.331,1.024 0.816,1.917 1.457,2.682 0.641,0.764 1.432,1.374 2.372,1.829 0.94,0.454 2.02,0.682 3.24,0.682 1.219,0 2.299,-0.228 3.239,-0.682"
             style="fill:#e82c2e;fill-opacity:1;fill-rule:nonzero;stroke:none"
             id="path78" />
        </g>
        <g
           id="g80"
           transform="translate(516.4818,247.5862)">
          <path
             d="M 0,0 V -14.354 H -1.953 V 0 h -2.729 v 1.643 h 2.729 V 3.1 c 0,0.682 0.052,1.313 0.155,1.891 0.104,0.579 0.3,1.075 0.589,1.488 0.289,0.414 0.688,0.734 1.193,0.962 C 0.491,7.668 1.137,7.782 1.923,7.782 2.212,7.782 2.48,7.771 2.729,7.75 2.977,7.73 3.256,7.699 3.565,7.658 V 5.983 C 3.297,6.025 3.049,6.061 2.821,6.092 2.594,6.123 2.367,6.139 2.14,6.139 1.602,6.139 1.188,6.056 0.899,5.891 0.609,5.725 0.398,5.503 0.264,5.224 0.129,4.945 0.052,4.62 0.031,4.248 0.011,3.875 0,3.472 0,3.038 V 1.643 H 3.163 V 0 Z"
             style="fill:#e82c2e;fill-opacity:1;fill-rule:nonzero;stroke:none"
             id="path82" />
        </g>
        <g
           id="g84"
           transform="translate(418.2034,222.2293)">
          <path
             d="m 0,0 v -2.697 h 0.093 c 0.516,0.992 1.194,1.767 2.031,2.325 0.837,0.558 1.906,0.837 3.209,0.837 1.054,0 2.01,-0.258 2.867,-0.775 0.858,-0.517 1.432,-1.302 1.721,-2.356 0.475,1.054 1.179,1.839 2.108,2.356 0.93,0.517 1.922,0.775 2.977,0.775 3.534,0 5.302,-1.871 5.302,-5.611 v -10.852 h -1.954 v 10.759 c 0,1.322 -0.279,2.33 -0.837,3.022 -0.558,0.693 -1.54,1.039 -2.946,1.039 -0.847,0 -1.55,-0.16 -2.107,-0.481 -0.559,-0.32 -1.003,-0.749 -1.334,-1.286 -0.33,-0.538 -0.564,-1.153 -0.697,-1.845 -0.135,-0.692 -0.202,-1.411 -0.202,-2.155 v -9.053 H 8.278 v 10.852 c 0,0.537 -0.057,1.048 -0.171,1.534 -0.114,0.486 -0.299,0.909 -0.557,1.271 -0.259,0.362 -0.605,0.646 -1.039,0.853 -0.434,0.206 -0.961,0.31 -1.581,0.31 -0.827,0 -1.545,-0.15 -2.155,-0.449 C 2.165,-1.927 1.669,-2.341 1.287,-2.868 0.904,-3.395 0.62,-4.015 0.435,-4.728 0.248,-5.441 0.155,-6.221 0.155,-7.069 v -8.929 H -1.798 V 0 Z"
             style="fill:#e82c2e;fill-opacity:1;fill-rule:nonzero;stroke:none"
             id="path86" />
        </g>
        <g
           id="g88"
           transform="translate(446.5403,220.4622)">
          <path
             d="m 0,0 c -0.703,-0.393 -1.287,-0.91 -1.752,-1.55 -0.465,-0.641 -0.816,-1.369 -1.054,-2.186 -0.238,-0.817 -0.357,-1.648 -0.357,-2.495 0,-0.849 0.119,-1.68 0.357,-2.497 0.238,-0.816 0.589,-1.545 1.054,-2.185 0.465,-0.641 1.049,-1.158 1.752,-1.55 0.702,-0.393 1.519,-0.589 2.449,-0.589 0.93,0 1.746,0.196 2.449,0.589 0.703,0.392 1.287,0.909 1.751,1.55 0.466,0.64 0.817,1.369 1.055,2.185 0.237,0.817 0.357,1.648 0.357,2.497 0,0.847 -0.12,1.678 -0.357,2.495 C 7.466,-2.919 7.115,-2.191 6.649,-1.55 6.185,-0.91 5.601,-0.393 4.898,0 4.195,0.393 3.379,0.589 2.449,0.589 1.519,0.589 0.702,0.393 0,0 M 5.688,1.55 C 6.629,1.095 7.42,0.485 8.061,-0.279 c 0.64,-0.765 1.126,-1.658 1.457,-2.682 0.33,-1.023 0.496,-2.113 0.496,-3.27 0,-1.159 -0.166,-2.248 -0.496,-3.271 -0.331,-1.023 -0.817,-1.918 -1.457,-2.682 -0.641,-0.765 -1.432,-1.37 -2.373,-1.814 -0.94,-0.444 -2.02,-0.667 -3.239,-0.667 -1.22,0 -2.3,0.223 -3.24,0.667 -0.94,0.444 -1.731,1.049 -2.372,1.814 -0.641,0.764 -1.126,1.659 -1.457,2.682 -0.33,1.023 -0.496,2.112 -0.496,3.271 0,1.157 0.166,2.247 0.496,3.27 0.331,1.024 0.816,1.917 1.457,2.682 0.641,0.764 1.432,1.374 2.372,1.829 0.94,0.454 2.02,0.682 3.24,0.682 1.219,0 2.299,-0.228 3.239,-0.682"
             style="fill:#e82c2e;fill-opacity:1;fill-rule:nonzero;stroke:none"
             id="path90" />
        </g>
        <g
           id="g92"
           transform="translate(471.9788,216.6951)">
          <path
             d="M 0,0 C -0.197,0.816 -0.507,1.545 -0.931,2.186 -1.354,2.826 -1.896,3.349 -2.558,3.751 -3.22,4.155 -4.015,4.356 -4.945,4.356 -5.979,4.356 -6.852,4.155 -7.564,3.751 -8.278,3.349 -8.856,2.826 -9.301,2.186 -9.746,1.545 -10.066,0.816 -10.262,0 c -0.197,-0.816 -0.295,-1.638 -0.295,-2.464 0,-0.828 0.098,-1.649 0.295,-2.465 0.196,-0.817 0.516,-1.546 0.961,-2.186 0.445,-0.641 1.023,-1.163 1.737,-1.566 0.712,-0.403 1.585,-0.604 2.619,-0.604 0.93,0 1.725,0.201 2.387,0.604 0.662,0.403 1.204,0.925 1.627,1.566 0.424,0.64 0.734,1.369 0.931,2.186 0.196,0.816 0.294,1.637 0.294,2.465 C 0.294,-1.638 0.196,-0.816 0,0 M -10.557,11.673 V 2.496 h 0.062 c 0.207,0.578 0.501,1.085 0.884,1.519 0.382,0.434 0.821,0.801 1.317,1.101 0.496,0.299 1.034,0.521 1.612,0.666 C -6.103,5.927 -5.524,6 -4.945,6 -3.726,6 -2.666,5.771 -1.768,5.317 -0.868,4.862 -0.119,4.248 0.48,3.473 1.08,2.697 1.523,1.798 1.813,0.775 2.103,-0.248 2.247,-1.328 2.247,-2.464 2.247,-3.602 2.103,-4.681 1.813,-5.705 1.523,-6.728 1.08,-7.626 0.48,-8.402 c -0.599,-0.775 -1.348,-1.385 -2.248,-1.829 -0.898,-0.444 -1.958,-0.666 -3.177,-0.666 -1.302,0 -2.465,0.299 -3.488,0.898 -1.023,0.6 -1.762,1.458 -2.216,2.574 h -0.063 v -3.038 h -1.798 v 22.136 z"
             style="fill:#e82c2e;fill-opacity:1;fill-rule:nonzero;stroke:none"
             id="path94" />
        </g>
        <path
           d="m 479.248,206.232 h -1.953 v 15.998 h 1.953 z m 0,19.005 h -1.953 v 3.131 h 1.953 z"
           style="fill:#e82c2e;fill-opacity:1;fill-rule:nonzero;stroke:none"
           id="path96" />
        <path
           d="m 484.984,206.232 h -1.953 v 22.136 h 1.953 z"
           style="fill:#e82c2e;fill-opacity:1;fill-rule:nonzero;stroke:none"
           id="path98" />
        <path
           d="m 490.719,206.232 h -1.953 v 15.998 h 1.953 z m 0,19.005 h -1.953 v 3.131 h 1.953 z"
           style="fill:#e82c2e;fill-opacity:1;fill-rule:nonzero;stroke:none"
           id="path100" />
        <g
           id="g102"
           transform="translate(503.679,219.1136)">
          <path
             d="M 0,0 C -0.228,0.444 -0.532,0.811 -0.915,1.101 -1.298,1.39 -1.736,1.602 -2.232,1.736 -2.729,1.87 -3.256,1.937 -3.813,1.937 -4.248,1.937 -4.687,1.891 -5.131,1.798 -5.576,1.705 -5.983,1.55 -6.355,1.333 -6.728,1.116 -7.027,0.832 -7.255,0.48 -7.482,0.129 -7.596,-0.305 -7.596,-0.822 c 0,-0.434 0.109,-0.801 0.325,-1.1 0.217,-0.3 0.492,-0.554 0.822,-0.76 0.331,-0.207 0.692,-0.377 1.085,-0.511 0.392,-0.135 0.755,-0.244 1.086,-0.326 l 2.603,-0.589 c 0.559,-0.083 1.112,-0.232 1.659,-0.45 0.547,-0.216 1.034,-0.501 1.457,-0.852 0.424,-0.352 0.77,-0.786 1.039,-1.302 0.268,-0.517 0.403,-1.127 0.403,-1.83 0,-0.868 -0.196,-1.607 -0.589,-2.216 -0.393,-0.61 -0.895,-1.106 -1.504,-1.488 -0.609,-0.383 -1.297,-0.656 -2.061,-0.822 -0.765,-0.165 -1.52,-0.248 -2.263,-0.248 -1.882,0 -3.406,0.444 -4.573,1.333 -1.168,0.889 -1.835,2.315 -2,4.279 h 1.953 c 0.083,-1.323 0.563,-2.321 1.441,-2.992 0.879,-0.672 1.969,-1.008 3.272,-1.008 0.474,0 0.965,0.052 1.472,0.155 0.506,0.104 0.977,0.279 1.41,0.528 0.435,0.248 0.791,0.562 1.071,0.945 0.278,0.382 0.418,0.852 0.418,1.41 0,0.476 -0.099,0.874 -0.294,1.194 -0.198,0.321 -0.461,0.589 -0.791,0.806 -0.331,0.217 -0.708,0.398 -1.132,0.543 -0.424,0.144 -0.853,0.268 -1.286,0.372 l -2.512,0.558 c -0.641,0.165 -1.229,0.357 -1.767,0.573 -0.538,0.218 -1.007,0.486 -1.411,0.807 -0.403,0.32 -0.718,0.712 -0.945,1.178 -0.228,0.465 -0.341,1.038 -0.341,1.72 0,0.807 0.181,1.498 0.542,2.078 0.361,0.578 0.832,1.043 1.411,1.395 0.578,0.351 1.225,0.609 1.938,0.775 0.713,0.165 1.421,0.248 2.124,0.248 0.805,0 1.555,-0.104 2.247,-0.31 C -0.595,3.064 0.016,2.744 0.542,2.31 1.069,1.875 1.488,1.338 1.798,0.698 2.108,0.057 2.283,-0.698 2.325,-1.566 H 0.372 C 0.351,-0.966 0.227,-0.445 0,0"
             style="fill:#e82c2e;fill-opacity:1;fill-rule:nonzero;stroke:none"
             id="path104" />
        </g>
        <path
           d="m 511.367,206.232 h -1.953 v 15.998 h 1.953 z m 0,19.005 h -1.953 v 3.131 h 1.953 z"
           style="fill:#e82c2e;fill-opacity:1;fill-rule:nonzero;stroke:none"
           id="path106" />
        <g
           id="g108"
           transform="translate(517.0403,222.2293)">
          <path
             d="m 0,0 v -2.759 h 0.062 c 0.373,0.971 1.034,1.752 1.984,2.341 0.951,0.588 1.995,0.883 3.132,0.883 1.116,0 2.051,-0.145 2.805,-0.434 0.754,-0.29 1.359,-0.698 1.814,-1.224 0.455,-0.528 0.775,-1.174 0.961,-1.938 0.186,-0.765 0.279,-1.623 0.279,-2.574 V -15.998 H 9.084 v 9.983 c 0,0.682 -0.062,1.318 -0.186,1.907 -0.124,0.589 -0.341,1.101 -0.651,1.535 -0.31,0.434 -0.728,0.775 -1.256,1.023 -0.527,0.248 -1.183,0.372 -1.969,0.372 -0.785,0 -1.483,-0.139 -2.092,-0.419 C 2.32,-1.875 1.803,-2.258 1.38,-2.744 0.956,-3.229 0.625,-3.809 0.388,-4.48 0.149,-5.152 0.021,-5.88 0,-6.666 v -9.332 H -1.953 V 0 Z"
             style="fill:#e82c2e;fill-opacity:1;fill-rule:nonzero;stroke:none"
             id="path110" />
        </g>
        <g
           id="g112"
           transform="translate(540.4153,208.6033)">
          <path
             d="m 0,0 c 0.641,0.361 1.179,0.837 1.612,1.426 0.435,0.589 0.76,1.266 0.977,2.031 0.217,0.764 0.326,1.55 0.326,2.356 0,0.786 -0.094,1.571 -0.279,2.356 -0.187,0.786 -0.487,1.499 -0.9,2.14 -0.413,0.64 -0.945,1.157 -1.596,1.55 -0.652,0.392 -1.442,0.589 -2.372,0.589 -0.93,0 -1.726,-0.192 -2.387,-0.573 C -5.281,11.492 -5.828,10.991 -6.263,10.371 -6.696,9.75 -7.012,9.042 -7.208,8.247 -7.404,7.451 -7.503,6.64 -7.503,5.813 -7.503,5.007 -7.399,4.221 -7.192,3.457 -6.986,2.692 -6.665,2.015 -6.231,1.426 -5.797,0.837 -5.25,0.361 -4.588,0 c 0.661,-0.362 1.446,-0.542 2.356,-0.542 0.847,0 1.591,0.18 2.232,0.542 M 4.48,-4.263 C 4.222,-5.213 3.813,-6.02 3.256,-6.681 2.697,-7.342 1.969,-7.849 1.07,-8.2 c -0.899,-0.351 -2,-0.527 -3.302,-0.527 -0.806,0 -1.592,0.093 -2.356,0.279 -0.766,0.186 -1.452,0.475 -2.061,0.868 -0.611,0.393 -1.117,0.894 -1.52,1.503 -0.403,0.61 -0.636,1.339 -0.697,2.186 h 1.953 c 0.102,-0.599 0.305,-1.1 0.604,-1.504 0.299,-0.402 0.662,-0.728 1.085,-0.976 0.423,-0.248 0.894,-0.429 1.411,-0.543 0.516,-0.113 1.043,-0.17 1.581,-0.17 1.819,0 3.131,0.517 3.937,1.55 0.807,1.034 1.21,2.522 1.21,4.465 v 2.17 H 2.853 c -0.456,-0.992 -1.122,-1.788 -2,-2.388 -0.878,-0.599 -1.907,-0.899 -3.085,-0.899 -1.282,0 -2.377,0.212 -3.287,0.636 -0.909,0.424 -1.658,1.008 -2.247,1.752 -0.589,0.744 -1.018,1.617 -1.287,2.619 -0.268,1.003 -0.403,2.073 -0.403,3.209 0,1.095 0.16,2.134 0.48,3.116 0.321,0.981 0.787,1.839 1.396,2.573 0.609,0.734 1.364,1.313 2.264,1.737 0.898,0.423 1.926,0.635 3.084,0.635 0.599,0 1.163,-0.083 1.69,-0.248 0.526,-0.166 1.007,-0.398 1.441,-0.697 0.434,-0.3 0.822,-0.647 1.163,-1.039 0.341,-0.393 0.605,-0.806 0.791,-1.24 h 0.062 v 2.759 H 4.868 V -1.069 c 0,-1.179 -0.13,-2.243 -0.388,-3.194"
             style="fill:#e82c2e;fill-opacity:1;fill-rule:nonzero;stroke:none"
             id="path114" />
        </g>
        <g
           id="g116"
           transform="translate(563.9788,222.2293)">
          <path
             d="m 0,0 v -1.643 h -3.255 v -10.789 c 0,-0.641 0.087,-1.143 0.263,-1.504 0.176,-0.362 0.615,-0.563 1.318,-0.605 0.558,0 1.116,0.032 1.674,0.094 v -1.643 c -0.29,0 -0.579,-0.011 -0.868,-0.032 -0.29,-0.02 -0.579,-0.03 -0.868,-0.03 -1.302,0 -2.212,0.252 -2.729,0.759 -0.516,0.506 -0.764,1.442 -0.744,2.806 v 10.944 h -2.79 V 0 h 2.79 v 4.806 h 1.954 V 0 Z"
             style="fill:#e82c2e;fill-opacity:1;fill-rule:nonzero;stroke:none"
             id="path118" />
        </g>
        <g
           id="g120"
           transform="translate(568.721,228.368)">
          <path
             d="m 0,0 v -8.898 h 0.062 c 0.373,0.971 1.034,1.752 1.984,2.341 0.951,0.589 1.995,0.884 3.132,0.884 1.116,0 2.051,-0.145 2.805,-0.434 0.754,-0.29 1.359,-0.698 1.814,-1.225 0.455,-0.527 0.775,-1.173 0.961,-1.938 0.186,-0.765 0.279,-1.623 0.279,-2.573 V -22.136 H 9.084 v 9.983 c 0,0.682 -0.062,1.318 -0.186,1.906 -0.124,0.589 -0.341,1.101 -0.651,1.535 -0.31,0.434 -0.728,0.775 -1.256,1.023 -0.527,0.248 -1.183,0.372 -1.969,0.372 -0.785,0 -1.483,-0.139 -2.092,-0.418 C 2.32,-8.014 1.803,-8.397 1.38,-8.882 0.956,-9.368 0.625,-9.947 0.388,-10.619 0.149,-11.291 0.021,-12.019 0,-12.804 v -9.332 H -1.953 V 0 Z"
             style="fill:#e82c2e;fill-opacity:1;fill-rule:nonzero;stroke:none"
             id="path122" />
        </g>
        <g
           id="g124"
           transform="translate(594.5618,217.4856)">
          <path
             d="m 0,0 c -0.237,0.682 -0.573,1.287 -1.008,1.814 -0.433,0.527 -0.961,0.95 -1.581,1.271 -0.62,0.32 -1.322,0.48 -2.108,0.48 -0.806,0 -1.519,-0.16 -2.139,-0.48 C -7.456,2.764 -7.983,2.341 -8.417,1.814 -8.852,1.287 -9.197,0.677 -9.456,-0.015 -9.715,-0.708 -9.885,-1.416 -9.968,-2.139 H 0.388 C 0.367,-1.395 0.237,-0.682 0,0 m -9.673,-5.968 c 0.196,-0.755 0.512,-1.431 0.945,-2.031 0.435,-0.599 0.982,-1.095 1.644,-1.488 0.661,-0.392 1.457,-0.589 2.387,-0.589 1.426,0 2.543,0.372 3.348,1.117 0.807,0.743 1.365,1.735 1.675,2.976 H 2.279 C 1.865,-7.802 1.105,-9.208 0,-10.2 c -1.105,-0.992 -2.672,-1.488 -4.697,-1.488 -1.261,0 -2.351,0.222 -3.271,0.667 -0.92,0.444 -1.669,1.054 -2.248,1.829 -0.578,0.775 -1.007,1.674 -1.286,2.697 -0.279,1.023 -0.419,2.103 -0.419,3.24 0,1.054 0.14,2.087 0.419,3.1 0.279,1.012 0.708,1.917 1.286,2.713 0.579,0.796 1.328,1.436 2.248,1.922 0.92,0.485 2.01,0.729 3.271,0.729 1.282,0 2.377,-0.259 3.287,-0.775 C -0.501,3.917 0.237,3.24 0.807,2.403 1.374,1.566 1.783,0.605 2.031,-0.48 2.279,-1.565 2.382,-2.666 2.341,-3.782 H -9.968 c 0,-0.703 0.099,-1.432 0.295,-2.186"
             style="fill:#e82c2e;fill-opacity:1;fill-rule:nonzero;stroke:none"
             id="path126" />
        </g>
        <g
           id="g128"
           transform="translate(418.2034,195.2288)">
          <path
             d="m 0,0 v -2.697 h 0.093 c 0.516,0.992 1.194,1.767 2.031,2.325 0.837,0.558 1.906,0.837 3.209,0.837 1.054,0 2.01,-0.258 2.867,-0.775 0.858,-0.517 1.432,-1.302 1.721,-2.356 0.475,1.054 1.179,1.839 2.108,2.356 0.93,0.517 1.922,0.775 2.977,0.775 3.534,0 5.302,-1.871 5.302,-5.611 v -10.852 h -1.954 v 10.759 c 0,1.322 -0.279,2.33 -0.837,3.022 -0.558,0.693 -1.54,1.039 -2.946,1.039 -0.847,0 -1.55,-0.16 -2.107,-0.481 -0.559,-0.32 -1.003,-0.749 -1.334,-1.286 -0.33,-0.538 -0.564,-1.153 -0.697,-1.845 -0.135,-0.692 -0.202,-1.411 -0.202,-2.155 v -9.053 H 8.278 v 10.852 c 0,0.537 -0.057,1.048 -0.171,1.534 -0.114,0.486 -0.299,0.909 -0.557,1.271 -0.259,0.362 -0.605,0.646 -1.039,0.853 -0.434,0.206 -0.961,0.31 -1.581,0.31 -0.827,0 -1.545,-0.15 -2.155,-0.449 C 2.165,-1.927 1.669,-2.341 1.287,-2.868 0.904,-3.395 0.62,-4.015 0.435,-4.728 0.248,-5.441 0.155,-6.221 0.155,-7.069 v -8.929 H -1.798 V 0 Z"
             style="fill:#e82c2e;fill-opacity:1;fill-rule:nonzero;stroke:none"
             id="path130" />
        </g>
        <path
           d="m 444.215,179.231 h -1.953 v 15.998 h 1.953 z m 0,19.005 h -1.953 v 3.131 h 1.953 z"
           style="fill:#e82c2e;fill-opacity:1;fill-rule:nonzero;stroke:none"
           id="path132" />
        <g
           id="g134"
           transform="translate(457.763,193.0276)">
          <path
             d="m 0,0 c -0.724,0.682 -1.736,1.023 -3.038,1.023 -0.931,0 -1.747,-0.196 -2.449,-0.589 -0.703,-0.393 -1.287,-0.91 -1.752,-1.55 -0.465,-0.641 -0.817,-1.369 -1.054,-2.186 -0.238,-0.817 -0.357,-1.648 -0.357,-2.495 0,-0.848 0.119,-1.68 0.357,-2.496 0.237,-0.817 0.589,-1.545 1.054,-2.186 0.465,-0.641 1.049,-1.158 1.752,-1.55 0.702,-0.393 1.518,-0.59 2.449,-0.59 0.599,0 1.167,0.114 1.705,0.342 0.537,0.227 1.013,0.542 1.426,0.945 0.413,0.404 0.755,0.884 1.023,1.442 0.269,0.558 0.434,1.168 0.496,1.829 h 1.953 c -0.268,-1.942 -0.982,-3.457 -2.139,-4.542 -1.157,-1.085 -2.646,-1.627 -4.464,-1.627 -1.22,0 -2.3,0.222 -3.24,0.666 -0.941,0.444 -1.732,1.049 -2.372,1.814 -0.641,0.764 -1.126,1.659 -1.457,2.681 -0.331,1.024 -0.497,2.113 -0.497,3.272 0,1.157 0.166,2.247 0.497,3.27 0.331,1.024 0.816,1.917 1.457,2.682 0.64,0.764 1.431,1.374 2.372,1.829 0.94,0.454 2.02,0.683 3.24,0.683 1.715,0 3.167,-0.456 4.355,-1.365 1.189,-0.909 1.897,-2.284 2.124,-4.123 H 1.488 C 1.219,-1.623 0.724,-0.682 0,0"
             style="fill:#e82c2e;fill-opacity:1;fill-rule:nonzero;stroke:none"
             id="path136" />
        </g>
        <g
           id="g138"
           transform="translate(465.8548,195.2288)">
          <path
             d="m 0,0 v -3.751 h 0.062 c 0.497,1.302 1.266,2.304 2.31,3.007 1.043,0.702 2.289,1.023 3.735,0.961 V -1.736 C 5.219,-1.695 4.413,-1.813 3.689,-2.093 2.966,-2.372 2.341,-2.77 1.813,-3.286 1.287,-3.803 0.879,-4.418 0.589,-5.131 0.3,-5.844 0.155,-6.625 0.155,-7.472 v -8.526 H -1.798 V 0 Z"
             style="fill:#e82c2e;fill-opacity:1;fill-rule:nonzero;stroke:none"
             id="path140" />
        </g>
        <g
           id="g142"
           transform="translate(477.5745,193.4617)">
          <path
             d="m 0,0 c -0.703,-0.393 -1.287,-0.91 -1.752,-1.55 -0.465,-0.641 -0.816,-1.369 -1.054,-2.186 -0.238,-0.817 -0.357,-1.648 -0.357,-2.495 0,-0.848 0.119,-1.68 0.357,-2.497 0.238,-0.816 0.589,-1.544 1.054,-2.185 0.465,-0.641 1.049,-1.158 1.752,-1.55 0.702,-0.393 1.519,-0.59 2.449,-0.59 0.93,0 1.746,0.197 2.449,0.59 0.703,0.392 1.287,0.909 1.751,1.55 0.466,0.641 0.817,1.369 1.055,2.185 0.237,0.817 0.357,1.649 0.357,2.497 0,0.847 -0.12,1.678 -0.357,2.495 C 7.466,-2.919 7.115,-2.191 6.649,-1.55 6.185,-0.91 5.601,-0.393 4.898,0 4.195,0.393 3.379,0.589 2.449,0.589 1.519,0.589 0.702,0.393 0,0 M 5.688,1.55 C 6.629,1.095 7.42,0.485 8.061,-0.279 c 0.64,-0.765 1.126,-1.658 1.457,-2.682 0.33,-1.023 0.496,-2.113 0.496,-3.27 0,-1.159 -0.166,-2.248 -0.496,-3.272 -0.331,-1.022 -0.817,-1.917 -1.457,-2.682 -0.641,-0.764 -1.432,-1.369 -2.373,-1.813 -0.94,-0.444 -2.02,-0.666 -3.239,-0.666 -1.22,0 -2.3,0.222 -3.24,0.666 -0.94,0.444 -1.731,1.049 -2.372,1.813 -0.641,0.765 -1.126,1.66 -1.457,2.682 -0.33,1.024 -0.496,2.113 -0.496,3.272 0,1.157 0.166,2.247 0.496,3.27 0.331,1.024 0.816,1.917 1.457,2.682 0.641,0.764 1.432,1.374 2.372,1.829 0.94,0.454 2.02,0.682 3.24,0.682 1.219,0 2.299,-0.228 3.239,-0.682"
             style="fill:#e82c2e;fill-opacity:1;fill-rule:nonzero;stroke:none"
             id="path144" />
        </g>
        <g
           id="g146"
           transform="translate(503.012,189.6946)">
          <path
             d="M 0,0 C -0.197,0.816 -0.507,1.545 -0.931,2.186 -1.354,2.826 -1.896,3.349 -2.558,3.751 -3.22,4.155 -4.015,4.356 -4.945,4.356 -5.979,4.356 -6.852,4.155 -7.564,3.751 -8.278,3.349 -8.856,2.826 -9.301,2.186 -9.746,1.545 -10.066,0.816 -10.262,0 c -0.197,-0.816 -0.295,-1.638 -0.295,-2.464 0,-0.828 0.098,-1.649 0.295,-2.465 0.196,-0.817 0.516,-1.546 0.961,-2.186 0.445,-0.641 1.023,-1.163 1.737,-1.566 0.712,-0.402 1.585,-0.605 2.619,-0.605 0.93,0 1.725,0.203 2.387,0.605 0.662,0.403 1.204,0.925 1.627,1.566 0.424,0.64 0.734,1.369 0.931,2.186 0.196,0.816 0.294,1.637 0.294,2.465 C 0.294,-1.638 0.196,-0.816 0,0 M -10.557,11.673 V 2.496 h 0.062 c 0.207,0.578 0.501,1.085 0.884,1.519 0.382,0.434 0.821,0.801 1.317,1.101 0.496,0.299 1.034,0.521 1.612,0.666 C -6.103,5.927 -5.524,6 -4.945,6 -3.726,6 -2.666,5.771 -1.768,5.317 -0.868,4.862 -0.119,4.248 0.48,3.473 1.08,2.697 1.523,1.798 1.813,0.775 2.103,-0.248 2.247,-1.328 2.247,-2.464 2.247,-3.601 2.103,-4.681 1.813,-5.705 1.523,-6.727 1.08,-7.626 0.48,-8.402 c -0.599,-0.774 -1.348,-1.385 -2.248,-1.829 -0.898,-0.444 -1.958,-0.666 -3.177,-0.666 -1.302,0 -2.465,0.3 -3.488,0.898 -1.023,0.6 -1.762,1.457 -2.216,2.574 h -0.063 v -3.038 h -1.798 v 22.136 z"
             style="fill:#e82c2e;fill-opacity:1;fill-rule:nonzero;stroke:none"
             id="path148" />
        </g>
        <path
           d="m 510.283,179.231 h -1.953 v 15.998 h 1.953 z m 0,19.005 h -1.953 v 3.131 h 1.953 z"
           style="fill:#e82c2e;fill-opacity:1;fill-rule:nonzero;stroke:none"
           id="path150" />
        <g
           id="g152"
           transform="translate(518.3431,193.4617)">
          <path
             d="m 0,0 c -0.703,-0.393 -1.287,-0.91 -1.752,-1.55 -0.465,-0.641 -0.816,-1.369 -1.054,-2.186 -0.238,-0.817 -0.357,-1.648 -0.357,-2.495 0,-0.848 0.119,-1.68 0.357,-2.497 0.238,-0.816 0.589,-1.544 1.054,-2.185 0.465,-0.641 1.049,-1.158 1.752,-1.55 0.702,-0.393 1.519,-0.59 2.449,-0.59 0.93,0 1.746,0.197 2.449,0.59 0.703,0.392 1.287,0.909 1.751,1.55 0.466,0.641 0.817,1.369 1.055,2.185 0.237,0.817 0.357,1.649 0.357,2.497 0,0.847 -0.12,1.678 -0.357,2.495 C 7.466,-2.919 7.115,-2.191 6.649,-1.55 6.185,-0.91 5.601,-0.393 4.898,0 4.195,0.393 3.379,0.589 2.449,0.589 1.519,0.589 0.702,0.393 0,0 M 5.688,1.55 C 6.629,1.095 7.42,0.485 8.061,-0.279 c 0.64,-0.765 1.126,-1.658 1.457,-2.682 0.33,-1.023 0.496,-2.113 0.496,-3.27 0,-1.159 -0.166,-2.248 -0.496,-3.272 -0.331,-1.022 -0.817,-1.917 -1.457,-2.682 -0.641,-0.764 -1.432,-1.369 -2.373,-1.813 -0.94,-0.444 -2.02,-0.666 -3.239,-0.666 -1.22,0 -2.3,0.222 -3.24,0.666 -0.94,0.444 -1.731,1.049 -2.372,1.813 -0.641,0.765 -1.126,1.66 -1.457,2.682 -0.33,1.024 -0.496,2.113 -0.496,3.272 0,1.157 0.166,2.247 0.496,3.27 0.331,1.024 0.816,1.917 1.457,2.682 0.641,0.764 1.432,1.374 2.372,1.829 0.94,0.454 2.02,0.682 3.24,0.682 1.219,0 2.299,-0.228 3.239,-0.682"
             style="fill:#e82c2e;fill-opacity:1;fill-rule:nonzero;stroke:none"
             id="path154" />
        </g>
        <g
           id="g156"
           transform="translate(533.0687,195.2288)">
          <path
             d="m 0,0 v -2.697 h 0.093 c 0.516,0.992 1.194,1.767 2.031,2.325 0.837,0.558 1.906,0.837 3.209,0.837 1.054,0 2.01,-0.258 2.867,-0.775 0.858,-0.517 1.432,-1.302 1.721,-2.356 0.475,1.054 1.179,1.839 2.108,2.356 0.93,0.517 1.922,0.775 2.977,0.775 3.534,0 5.302,-1.871 5.302,-5.611 v -10.852 h -1.954 v 10.759 c 0,1.322 -0.279,2.33 -0.837,3.022 -0.558,0.693 -1.54,1.039 -2.946,1.039 -0.847,0 -1.55,-0.16 -2.107,-0.481 -0.559,-0.32 -1.003,-0.749 -1.334,-1.286 -0.33,-0.538 -0.564,-1.153 -0.697,-1.845 -0.135,-0.692 -0.202,-1.411 -0.202,-2.155 v -9.053 H 8.278 v 10.852 c 0,0.537 -0.057,1.048 -0.171,1.534 -0.114,0.486 -0.299,0.909 -0.557,1.271 -0.259,0.362 -0.605,0.646 -1.039,0.853 -0.434,0.206 -0.961,0.31 -1.581,0.31 -0.827,0 -1.545,-0.15 -2.155,-0.449 C 2.165,-1.927 1.669,-2.341 1.287,-2.868 0.904,-3.395 0.62,-4.015 0.435,-4.728 0.248,-5.441 0.155,-6.221 0.155,-7.069 v -8.929 H -1.798 V 0 Z"
             style="fill:#e82c2e;fill-opacity:1;fill-rule:nonzero;stroke:none"
             id="path158" />
        </g>
        <g
           id="g160"
           transform="translate(568.2103,190.4851)">
          <path
             d="m 0,0 c -0.237,0.682 -0.573,1.287 -1.008,1.814 -0.433,0.527 -0.961,0.95 -1.581,1.271 -0.62,0.32 -1.322,0.48 -2.108,0.48 -0.806,0 -1.519,-0.16 -2.139,-0.48 C -7.456,2.764 -7.983,2.341 -8.417,1.814 -8.852,1.287 -9.197,0.677 -9.456,-0.015 -9.715,-0.708 -9.885,-1.416 -9.968,-2.139 H 0.388 C 0.367,-1.395 0.237,-0.682 0,0 m -9.673,-5.968 c 0.196,-0.755 0.512,-1.431 0.945,-2.031 0.435,-0.6 0.982,-1.096 1.644,-1.487 0.661,-0.394 1.457,-0.59 2.387,-0.59 1.426,0 2.543,0.372 3.348,1.116 0.807,0.744 1.365,1.736 1.675,2.977 H 2.279 C 1.865,-7.803 1.105,-9.208 0,-10.2 c -1.105,-0.992 -2.672,-1.488 -4.697,-1.488 -1.261,0 -2.351,0.222 -3.271,0.667 -0.92,0.444 -1.669,1.054 -2.248,1.829 -0.578,0.775 -1.007,1.674 -1.286,2.697 -0.279,1.023 -0.419,2.103 -0.419,3.24 0,1.054 0.14,2.087 0.419,3.1 0.279,1.012 0.708,1.917 1.286,2.713 0.579,0.796 1.328,1.436 2.248,1.922 0.92,0.485 2.01,0.729 3.271,0.729 1.282,0 2.377,-0.259 3.287,-0.775 C -0.501,3.917 0.237,3.24 0.807,2.403 1.374,1.566 1.783,0.605 2.031,-0.48 2.279,-1.565 2.382,-2.666 2.341,-3.782 H -9.968 c 0,-0.703 0.099,-1.432 0.295,-2.186"
             style="fill:#e82c2e;fill-opacity:1;fill-rule:nonzero;stroke:none"
             id="path162" />
        </g>
        <g
           id="g164"
           transform="translate(592.5688,283.9869)">
          <path
             d="M 0,0 H -314.107"
             style="fill:none;stroke:#77787b;stroke-width:1;stroke-linecap:round;stroke-linejoin:round;stroke-miterlimit:10;stroke-dasharray:none;stroke-opacity:1"
             id="path166" />
        </g>
      </g>
    </g>
  </g>
</svg>
